<?xml version="1.0" encoding="UTF-8"?>
<svg version="1.1" xmlns="http://www.w3.org/2000/svg" width="352" height="258">
<path d="M0 0 C5.07726262 3.70051272 9.87600878 7.91878043 14.08984375 12.5859375 C15.55708114 14.14617705 15.55708114 14.14617705 18.4921875 13.81640625 C20.89800592 11.61680084 23.06951584 9.27514835 25.27734375 6.87890625 C34.13946463 -2.42367789 44.44363863 -7.11028154 57.3671875 -7.62109375 C70.5868981 -7.21064995 82.69101713 -1.60178247 91.7421875 8.00390625 C93.6006656 10.0968254 94.45642986 11.08612528 94.59375 13.890625 C92.83506282 16.96520932 89.83263639 17.46586088 86.6171875 18.44140625 C81.31878766 20.13395363 81.31878766 20.13395363 76.4921875 22.81640625 C73.58335275 22.62248393 72.39726703 21.73897113 70.1171875 19.87890625 C65.26144409 16.06367928 60.57345197 15.29215931 54.4921875 15.81640625 C42.36768972 18.54938731 33.78925944 29.26663161 25.4921875 37.81640625 C26.15927734 38.50476563 26.15927734 38.50476563 26.83984375 39.20703125 C27.40574219 39.820625 27.97164062 40.43421875 28.5546875 41.06640625 C29.12316406 41.6696875 29.69164062 42.27296875 30.27734375 42.89453125 C31.4921875 44.81640625 31.4921875 44.81640625 31.25195312 46.734375 C30.37777082 49.12994912 29.37329809 50.28134742 27.55078125 52.05078125 C26.96748047 52.62441406 26.38417969 53.19804688 25.78320312 53.7890625 C25.17154297 54.37558594 24.55988281 54.96210937 23.9296875 55.56640625 C23.31416016 56.16839844 22.69863281 56.77039063 22.06445312 57.390625 C20.54703937 58.87275006 19.02048154 60.34550295 17.4921875 61.81640625 C13.26321596 59.87054294 10.45691622 57.18364677 7.1796875 53.94140625 C6.61701172 53.41160156 6.05433594 52.88179687 5.47460938 52.3359375 C3.87890625 50.76171875 3.87890625 50.76171875 1.4921875 47.81640625 C1.8148069 44.76940507 2.33531989 43.96404635 4.6171875 41.81640625 C5.2359375 41.15640625 5.8546875 40.49640625 6.4921875 39.81640625 C5.98215462 34.6831721 1.90326838 31.75328263 -1.5703125 28.31640625 C-2.21419922 27.65253906 -2.85808594 26.98867187 -3.52148438 26.3046875 C-9.73994443 20.09242731 -16.01403176 16.20833122 -24.921875 15.66015625 C-31.27384087 16.04396083 -36.67160357 18.46642917 -41.0078125 23.12890625 C-45.41250235 29.0309411 -45.72735224 34.6496779 -45.3828125 41.77734375 C-42.74217223 50.94885327 -34.98585878 57.80567467 -28.4375 64.35546875 C-27.46887916 65.33120638 -26.50055154 66.30723517 -25.53250122 67.28353882 C-23.51880671 69.31057392 -21.49939741 71.33169901 -19.47607422 73.34912109 C-16.88208207 75.93716513 -14.30697442 78.54317351 -11.73612785 81.15418434 C-9.74933291 83.16676318 -7.75124924 85.16782705 -5.74969864 87.16572189 C-4.33085716 88.58707904 -2.92313793 90.01951064 -1.51559448 91.45205688 C-0.22372726 92.72996597 -0.22372726 92.72996597 1.09423828 94.03369141 C1.84891388 94.79042145 2.60358948 95.54715149 3.38113403 96.32681274 C5.3320961 98.05826691 5.3320961 98.05826691 7.43929672 97.57347202 C10.99565199 96.26195809 13.34377234 93.31617101 15.93798828 90.64770508 C16.57599869 90.00370758 17.21400909 89.35971008 17.87135315 88.69619751 C19.2567384 87.29604502 20.63868053 85.89247931 22.01758194 84.48594093 C24.20595035 82.25462506 26.40399233 80.03327136 28.60494995 77.81437683 C34.86118526 71.50312257 41.09768783 65.17246943 47.33203125 58.83959961 C51.14715709 54.96554731 54.97220718 51.10150818 58.8029747 47.24292564 C60.95889772 45.06496002 63.10276949 42.87559231 65.24661255 40.68574524 C71.79453791 34.05537914 77.94425417 27.84390983 86.4921875 23.81640625 C87.20553253 23.47579666 87.91887756 23.13518707 88.65383911 22.78425598 C97.3020333 18.949585 109.62642775 19.4570167 118.4921875 22.44140625 C125.7613436 25.56780622 132.24695399 29.8623574 137.4921875 35.81640625 C137.98460937 36.35523438 138.47703125 36.8940625 138.984375 37.44921875 C146.42917089 46.30148849 148.16862921 56.94171977 147.80859375 68.2421875 C146.43970335 83.70557901 138.45847117 93.49021396 127.6171875 104.00390625 C126.65146571 104.95809654 125.6866174 105.9131717 124.72265625 106.86914062 C120.04545327 111.47256057 115.29473732 115.93155804 110.31933594 120.2097168 C107.27177408 122.88956776 104.4131774 125.75026248 101.5546875 128.62890625 C100.97912109 129.20060547 100.40355469 129.77230469 99.81054688 130.36132812 C96.78074298 133.30716254 96.78074298 133.30716254 94.4921875 136.81640625 C86.52947066 136.97901172 78.56745384 137.10318055 70.60348415 137.17909145 C66.90489767 137.21553648 63.20745162 137.26491851 59.50952148 137.34448242 C55.93677229 137.42086682 52.36511567 137.46246215 48.79161263 137.48054695 C47.43238188 137.49342416 46.07320715 137.51857253 44.71444511 137.55651665 C34.11873232 137.84048332 34.11873232 137.84048332 30.05471802 135.2817688 C28.25125552 133.54278714 26.78829018 131.95793432 25.4921875 129.81640625 C25.4921875 129.15640625 25.4921875 128.49640625 25.4921875 127.81640625 C24.8321875 127.81640625 24.1721875 127.81640625 23.4921875 127.81640625 C25.75942515 122.80251058 28.94418611 118.93887177 33.4921875 115.81640625 C37.15282303 115.0878423 40.4589906 115.59170001 44.12890625 116.1171875 C46.23706593 116.30434211 48.34648435 116.47771316 50.45678711 116.63891602 C51.55489716 116.72569611 52.6530072 116.8124762 53.78439331 116.90188599 C69.79973566 117.97272316 83.29429223 117.69008283 95.9453125 106.89453125 C99.44117678 103.69848066 102.71763368 100.35878545 105.9296875 96.87890625 C106.70790863 96.03768219 107.48612976 95.19645813 108.28793335 94.32974243 C120.40942882 81.44366549 120.40942882 81.44366549 125.58470154 65.04994202 C125.15676744 58.19385562 123.26323373 53.22022197 118.1171875 48.56640625 C113.86764104 44.9572024 109.7421697 43.52190527 104.1796875 43.44140625 C103.29667969 43.41304687 102.41367187 43.3846875 101.50390625 43.35546875 C94.43800819 44.43689024 89.24124955 48.47454432 84.38671875 53.48364258 C83.83269379 54.03868973 83.27866882 54.59373688 82.70785522 55.16560364 C80.8972576 56.98401923 79.10114491 58.81606083 77.3046875 60.6484375 C76.03586917 61.92727575 74.76607647 63.20514793 73.49536133 64.48210144 C70.16231645 67.83600372 66.84102415 71.20129635 63.52258301 74.56964111 C58.21568417 79.95199727 52.89002563 85.31580687 47.56625366 90.68146324 C45.71976131 92.5454833 43.87766304 94.41375187 42.03637695 96.28291321 C32.70764816 105.72797668 32.70764816 105.72797668 27.90869141 109.77246094 C24.76905367 112.44009285 22.74041019 115.1745374 20.640625 118.75 C12.74014876 130.18986191 4.25751525 136.62307808 -9.62515259 139.29290771 C-29.1550677 142.22485117 -53.29428969 143.7992847 -69.98764992 131.54188156 C-87.38228781 117.96901599 -110.96051898 94.45941066 -114.5078125 71.81640625 C-115.54944363 59.33171311 -113.79521326 48.15978245 -106.1328125 37.81640625 C-98.73614549 29.2082162 -89.21625761 21.75666379 -77.5078125 20.81640625 C-76.16846656 21.12469402 -74.83382135 21.45503469 -73.5078125 21.81640625 C-73.58283678 25.21765679 -73.7552454 28.60729541 -73.9453125 32.00390625 C-73.96529297 32.96361328 -73.98527344 33.92332031 -74.00585938 34.91210938 C-74.19579485 37.80112784 -74.45968762 40.112673 -75.5078125 42.81640625 C-77.67748616 44.64540703 -79.69871273 45.71434937 -82.30712891 46.81591797 C-86.67579243 48.80202659 -88.78314366 52.29805249 -90.8203125 56.56640625 C-92.36025492 63.84613404 -92.28390947 70.23868895 -88.5078125 76.81640625 C-87.59324887 77.92121877 -86.64773959 79.00068074 -85.68359375 80.0625 C-83.29299714 82.72531902 -81.00847302 85.43185084 -78.81811523 88.25976562 C-64.19321879 107.38469679 -64.19321879 107.38469679 -42.95336914 116.72627258 C-31.47382634 117.77909221 -19.94317441 117.08235502 -8.5078125 115.81640625 C-13.92332637 109.36867562 -19.79648373 103.48546245 -25.82421875 97.61328125 C-27.82699833 95.64538939 -29.82627529 93.67394617 -31.82617188 91.703125 C-34.94722718 88.62979511 -38.07262689 85.56126015 -41.21362305 82.50830078 C-43.77679633 80.01612104 -46.32441437 77.50889807 -48.86292839 74.9916153 C-50.2802287 73.59415549 -51.71320776 72.21265277 -53.1466217 70.83172607 C-62.97256673 61.0469801 -67.7138564 50.66146194 -68.8203125 36.94140625 C-68.42908659 25.50380161 -63.65891754 12.96751129 -55.5078125 4.81640625 C-38.94261346 -8.53966752 -18.48854407 -11.78423177 0 0 Z " fill="#FAF8D1" transform="translate(154.5078125,68.18359375)"/>
<path d="M0 0 C7.39696032 -0.398112 14.79153515 -0.69795572 22.19712734 -0.88080692 C25.63866274 -0.96869673 29.07276091 -1.08721245 32.51000977 -1.2824707 C56.59866285 -2.61638579 56.59866285 -2.61638579 64.56298828 3.89501953 C68.28797072 7.469531 71.51384097 11.33996263 74.47035217 15.56983948 C75.89619633 17.23839802 75.89619633 17.23839802 78.01243591 16.94664001 C80.43488132 15.79287407 81.30827811 14.63260425 82.8359375 12.4375 C88.38484938 5.26867427 93.40929172 -0.12284499 102.7421875 -1.31640625 C109.83589966 -1.72995577 116.89506042 -1.48331358 123.98522949 -1.09863281 C127.37653375 -0.93261198 130.76983582 -0.86140256 134.1640625 -0.78125 C140.78178962 -0.60629765 147.388321 -0.33109332 154 0 C154 6.93 154 13.86 154 21 C134.06855017 21.02311741 114.13710411 21.04097841 94.20564365 21.05181217 C84.9517884 21.05697546 75.69794162 21.06401878 66.4440918 21.07543945 C58.38143802 21.08538529 50.31879037 21.09185319 42.25613064 21.09408849 C37.98431479 21.09539577 33.71251649 21.0984827 29.44070625 21.10573006 C25.42464044 21.11248869 21.40859949 21.11461728 17.39252853 21.11310768 C15.91423215 21.11338408 14.43593499 21.11539013 12.95764351 21.11920547 C10.94801043 21.12414021 8.93836419 21.12239814 6.9287262 21.12025452 C5.80137338 21.12117631 4.67402056 21.1220981 3.51250553 21.12304783 C1 21 1 21 0 20 C-0.08669432 18.5112814 -0.10703494 17.018555 -0.09765625 15.52734375 C-0.09443359 14.62822266 -0.09121094 13.72910156 -0.08789062 12.80273438 C-0.07951172 11.85720703 -0.07113281 10.91167969 -0.0625 9.9375 C-0.05798828 8.98810547 -0.05347656 8.03871094 -0.04882812 7.06054688 C-0.0370011 4.70696935 -0.02052025 2.35351523 0 0 Z " fill="#FAF8D1" transform="translate(94,215)"/>
<path d="M0 0 C3.85978995 1.58708655 6.53587211 4.19703879 9.45703125 7.0859375 C9.96425217 7.58412994 10.47147308 8.08232239 10.99406433 8.59561157 C12.0598617 9.64694612 13.12290806 10.70107597 14.18334961 11.7578125 C15.81246938 13.37496961 17.45931719 14.97253725 19.10742188 16.5703125 C20.14176828 17.59520162 21.17501104 18.62120603 22.20703125 19.6484375 C22.70274124 20.12461517 23.19845123 20.60079285 23.70918274 21.09140015 C26.95847171 24.38480538 26.95847171 24.38480538 27.13378906 26.98193359 C25.44247953 29.99234802 23.10844781 32.2576823 20.65234375 34.640625 C20.12105362 35.16767029 19.58976349 35.69471558 19.04237366 36.23773193 C17.34767175 37.91567187 15.64282783 39.58286728 13.9375 41.25 C12.78512255 42.38732745 11.63342148 43.52534066 10.48242188 44.6640625 C7.66272816 47.45071992 4.83389412 50.22778792 2 53 C-1.85978995 51.41291345 -4.53587211 48.80296121 -7.45703125 45.9140625 C-8.21786263 45.16677383 -8.21786263 45.16677383 -8.99406433 44.40438843 C-10.0598617 43.35305388 -11.12290806 42.29892403 -12.18334961 41.2421875 C-13.81246938 39.62503039 -15.45931719 38.02746275 -17.10742188 36.4296875 C-18.14176828 35.40479838 -19.17501104 34.37879397 -20.20703125 33.3515625 C-20.70274124 32.87538483 -21.19845123 32.39920715 -21.70918274 31.90859985 C-24.95847171 28.61519462 -24.95847171 28.61519462 -25.13378906 26.01806641 C-23.44247953 23.00765198 -21.10844781 20.7423177 -18.65234375 18.359375 C-17.85540855 17.56880707 -17.85540855 17.56880707 -17.04237366 16.76226807 C-15.34767175 15.08432813 -13.64282783 13.41713272 -11.9375 11.75 C-10.78512255 10.61267255 -9.63342148 9.47465934 -8.48242188 8.3359375 C-5.66272816 5.54928008 -2.83389412 2.77221208 0 0 Z " fill="#EFEB75" transform="translate(170,14)"/>
<path d="M0 0 C0.98120464 3.05263664 0.98120464 4.94736336 0 8 C-0.66 8 -1.32 8 -2 8 C-2 6.68 -2 5.36 -2 4 C-7.90516536 3.37840365 -12.88103563 5.19144069 -18 8 C-19.96357993 9.86151266 -21.37046083 11.81176168 -23 14 C-23.825 14.45375 -24.65 14.9075 -25.5 15.375 C-31.60210379 19.34136746 -34.23703581 27.00921057 -36.34375 33.703125 C-37.93654063 41.70500172 -36.64713625 49.39217346 -34 57 C-33.9175 57.928125 -33.835 58.85625 -33.75 59.8125 C-31.98385932 67.31859791 -26.86610201 72.3820048 -21 77 C-19.32932867 78.99665598 -17.66247014 80.99651034 -16 83 C-14.35360035 84.35827971 -12.68704193 85.69254251 -11 87 C-8.13833918 89.71490898 -5.52553788 92.53960555 -3 95.5625 C-0.57070686 98.44027803 1.99874965 100.7095721 5 103 C7.3125 105.125 7.3125 105.125 9 107 C9 107.66 9 108.32 9 109 C9.66 109 10.32 109 11 109 C11.48533203 109.8156543 11.97066406 110.63130859 12.47070312 111.47167969 C15.32124468 114.32112064 15.83773457 114.38319463 19.66992188 114.55175781 C21.60312939 114.54419797 23.53635062 114.50952622 25.46875 114.453125 C26.50004028 114.44367859 27.53133057 114.43423218 28.59387207 114.42449951 C31.89671452 114.38990662 35.19776291 114.3212436 38.5 114.25 C41.7734341 114.19972871 45.04683891 114.15661574 48.32043457 114.11834717 C50.35530972 114.09235006 52.39010597 114.05843465 54.42468262 114.01495361 C61.33965228 113.89658185 68.1194531 114.31338325 75 115 C75 115.33 75 115.66 75 116 C21.4949554 123.30119525 21.4949554 123.30119525 4.41036797 110.83526993 C-12.90723069 97.30255788 -36.47180867 73.52107175 -40 51 C-41.04163113 38.51530686 -39.28740076 27.3433762 -31.625 17 C-23.74930926 7.83432544 -12.72875105 -0.77143946 0 0 Z " fill="#EBEABA" transform="translate(80,89)"/>
<path d="M0 0 C19.14 0 38.28 0 58 0 C58 6.93 58 13.86 58 21 C7.51 21 -42.98 21 -95 21 C-95.33 19.68 -95.66 18.36 -96 17 C-95.67 17.66 -95.34 18.32 -95 19 C-59.36 18.505 -59.36 18.505 -23 18 C-23.495 16.02 -23.495 16.02 -24 14 C-23.443125 14.515625 -22.88625 15.03125 -22.3125 15.5625 C-20.05914993 17.29476698 -20.05914993 17.29476698 -17.25 16.6875 C-16.5075 16.460625 -15.765 16.23375 -15 16 C-14.505 16.99 -14.505 16.99 -14 18 C9.1 18.33 32.2 18.66 56 19 C56 13.39 56 7.78 56 2 C37.52 2 19.04 2 0 2 C0 1.34 0 0.68 0 0 Z " fill="#E5E5C7" transform="translate(190,215)"/>
<path d="M0 0 C2.71928517 0.37507382 3.84218661 0.84218661 5.8125 2.8125 C7 5 7 5 7.00390625 6.97265625 C6 9 6 9 2.9453125 10.4140625 C1.67719099 10.83411114 0.40334009 11.23716029 -0.875 11.625 C-6.17339984 13.31754738 -6.17339984 13.31754738 -11 16 C-13.90883475 15.80607768 -15.09492047 14.92256488 -17.375 13.0625 C-22.23074341 9.24727303 -26.91873553 8.47575306 -33 9 C-45.12449778 11.73298106 -53.70292806 22.45022536 -62 31 C-61.55527344 31.45890625 -61.11054688 31.9178125 -60.65234375 32.390625 C-60.08644531 33.00421875 -59.52054688 33.6178125 -58.9375 34.25 C-58.36902344 34.85328125 -57.80054688 35.4565625 -57.21484375 36.078125 C-56 38 -56 38 -56.24023438 39.91796875 C-57.11441668 42.31354287 -58.11888941 43.46494117 -59.94140625 45.234375 C-60.52470703 45.80800781 -61.10800781 46.38164063 -61.70898438 46.97265625 C-62.62647461 47.85244141 -62.62647461 47.85244141 -63.5625 48.75 C-64.17802734 49.35199219 -64.79355469 49.95398438 -65.42773438 50.57421875 C-66.94514813 52.05634381 -68.47170596 53.5290967 -70 55 C-73.80475512 53.22997053 -76.28089246 50.98647075 -79.25 48 C-80.14203125 47.113125 -81.0340625 46.22625 -81.953125 45.3125 C-84 43 -84 43 -84 41 C-78.43327472 43.355153 -74.13964722 47.70113557 -70 52 C-69.62488281 51.54109375 -69.24976563 51.0821875 -68.86328125 50.609375 C-65.82545052 46.96703891 -62.84619007 43.82808093 -59 41 C-60.52708963 37.56404834 -62.59927045 34.88087546 -65 32 C-63.4371028 27.78017757 -60.41133255 25.78476126 -57 23 C-55.99426222 21.67098936 -54.99204592 20.33926199 -54 19 C-53.34 19 -52.68 19 -52 19 C-52 18.34 -52 17.68 -52 17 C-51.34 17 -50.68 17 -50 17 C-49.67 15.68 -49.34 14.36 -49 13 C-48.01 13 -47.02 13 -46 13 C-46 12.01 -46 11.02 -46 10 C-38.4415576 6.60737972 -31.00892199 3.31048623 -22.8125 6.25 C-19.47693432 7.69851259 -16.23696034 9.34388076 -13 11 C-12.01 11.33 -11.02 11.66 -10 12 C-8.27031735 11.02093435 -6.54304269 10.03586677 -4.8515625 8.9921875 C-2.3120054 7.63132779 0.15565181 7.27749738 3 7 C2.505 6.21625 2.01 5.4325 1.5 4.625 C0 2 0 2 0 0 Z " fill="#E7E7CB" transform="translate(242,75)"/>
<path d="M0 0 C0.33 0 0.66 0 1 0 C1 4.29 1 8.58 1 13 C-1.0728125 14.051875 -1.0728125 14.051875 -3.1875 15.125 C-8.56994847 18.1293541 -11.61636089 21.10094663 -14.3125 26.75 C-15.85244242 34.02972779 -15.77609697 40.4222827 -12 47 C-5.94469974 54.78707822 1.45128277 61.5639752 8.4375 68.5 C9.6584369 69.71591114 10.87914192 70.93205516 12.09960938 72.1484375 C15.06374013 75.10164966 18.03098958 78.05169398 21 81 C18 81 18 81 16.1328125 79.42578125 C15.47023437 78.72839844 14.80765625 78.03101563 14.125 77.3125 C13.06732422 76.21615234 13.06732422 76.21615234 11.98828125 75.09765625 C11.33214844 74.40542969 10.67601563 73.71320313 10 73 C7.61000726 70.55442603 5.34218664 68.26114243 2.625 66.1875 C0.26207474 64.21839561 -1.52655414 62.27829726 -3.5 59.9375 C-5.58373864 57.47696331 -7.01761622 55.98943027 -9.8125 54.3125 C-12.6048845 52.6370693 -13.09076964 51.05832029 -14 48 C-14.66 48 -15.32 48 -16 48 C-16.28875 47.21625 -16.5775 46.4325 -16.875 45.625 C-17.84912254 42.90328368 -17.84912254 42.90328368 -20 41 C-20.08203125 37.91796875 -20.08203125 37.91796875 -19.8125 34.1875 C-19.73644531 32.96417969 -19.66039062 31.74085938 -19.58203125 30.48046875 C-18.98838011 26.9305146 -18.18099797 24.84125045 -16 22 C-15.34 22 -14.68 22 -14 22 C-13.92652344 21.24332031 -13.85304688 20.48664063 -13.77734375 19.70703125 C-12.78749759 16.25997904 -11.56894873 15.54909306 -8.5625 13.6875 C-7.75941406 13.17574219 -6.95632812 12.66398437 -6.12890625 12.13671875 C-4 11 -4 11 -2 11 C-2.185625 10.4225 -2.37125 9.845 -2.5625 9.25 C-3.04023546 6.79307475 -2.75729364 5.35602466 -2 3 C-1.34 3 -0.68 3 0 3 C0 2.01 0 1.02 0 0 Z " fill="#EAE9CA" transform="translate(78,98)"/>
<path d="M0 0 C3.21524305 1.40844718 5.32183868 3.10344786 7.75 5.625 C8.67039063 6.57246094 8.67039063 6.57246094 9.609375 7.5390625 C10.06828125 8.02117187 10.5271875 8.50328125 11 9 C9.59155282 12.21524305 7.89655214 14.32183868 5.375 16.75 C4.74335938 17.36359375 4.11171875 17.9771875 3.4609375 18.609375 C2.97882813 19.06828125 2.49671875 19.5271875 2 20 C-1.21524305 18.59155282 -3.32183868 16.89655214 -5.75 14.375 C-6.36359375 13.74335938 -6.9771875 13.11171875 -7.609375 12.4609375 C-8.06828125 11.97882813 -8.5271875 11.49671875 -9 11 C-6.88576944 6.99408947 -4.58038219 4.73239693 -1 2 C-0.67 1.34 -0.34 0.68 0 0 Z " fill="#EFEB7B" transform="translate(170,201)"/>
<path d="M0 0 C0.98120464 3.05263664 0.98120464 4.94736336 0 8 C-0.66 8 -1.32 8 -2 8 C-2 6.68 -2 5.36 -2 4 C-7.90516536 3.37840365 -12.88103563 5.19144069 -18 8 C-19.96357993 9.86151266 -21.37046083 11.81176168 -23 14 C-23.825 14.45375 -24.65 14.9075 -25.5 15.375 C-31.60210379 19.34136746 -34.23703581 27.00921057 -36.34375 33.703125 C-37.92143752 41.6291266 -36.74996917 49.47735706 -34 57 C-35.32 57.66 -36.64 58.32 -38 59 C-42.11509956 46.39750761 -40.79837631 33.83044034 -35 22 C-28.70556744 11.80331828 -19.52710384 4.63448634 -8.25 0.6875 C-5.36918547 0.07809693 -2.92832117 -0.17747401 0 0 Z " fill="#EBEACA" transform="translate(80,89)"/>
<path d="M0 0 C3.9662765 2.74153554 6.70597362 6.35857322 9.64453125 10.13671875 C5.90588283 10.13671875 5.40810419 9.27708984 2.76953125 6.76171875 C-1.66897861 2.53207994 -5.51328355 0.850788 -11.66796875 0.76171875 C-12.55097656 0.73335938 -13.43398438 0.705 -14.34375 0.67578125 C-22.00936118 1.84898763 -27.25182241 6.46042858 -32.48046875 11.87109375 C-33.11283447 12.50911926 -33.7452002 13.14714478 -34.39672852 13.80450439 C-36.39265746 15.82262819 -38.37413602 17.85427352 -40.35546875 19.88671875 C-41.71521056 21.26654729 -43.07587933 22.645463 -44.4375 24.0234375 C-47.75429616 27.3840766 -51.05821579 30.75690746 -54.35546875 34.13671875 C-55.01546875 33.80671875 -55.67546875 33.47671875 -56.35546875 33.13671875 C-54.84291199 29.28657427 -52.55316088 27.66512648 -49.35546875 25.13671875 C-47.66814598 23.15411449 -46.00180818 21.15348455 -44.35546875 19.13671875 C-41.77933262 16.42847307 -39.1903144 14.00189887 -36.29296875 11.63671875 C-33.55058708 9.30277691 -31.58440439 6.94086358 -29.35546875 4.13671875 C-20.98804094 -3.55226897 -10.12139968 -5.87494686 0 0 Z " fill="#EFEDC8" transform="translate(270.35546875,110.86328125)"/>
<path d="M0 0 C1.03054172 3.57329649 0.85080745 5.269384 -0.5625 8.75 C-0.87316406 9.54921875 -1.18382812 10.3484375 -1.50390625 11.171875 C-5.82940327 19.34853255 -12.34420026 25.62388837 -18.875 32.0625 C-19.73480469 32.92166016 -20.59460938 33.78082031 -21.48046875 34.66601562 C-25.93528079 39.09040785 -30.46664223 43.35456591 -35.22705078 47.44750977 C-37.76817533 49.67265587 -40.12804497 52.03260115 -42.5 54.4375 C-43.3559375 55.30246094 -44.211875 56.16742188 -45.09375 57.05859375 C-45.7228125 57.69925781 -46.351875 58.33992188 -47 59 C-47.495 57.515 -47.495 57.515 -48 56 C-47.38125 55.773125 -46.7625 55.54625 -46.125 55.3125 C-43.80709666 54.19124075 -43.80709666 54.19124075 -43.25 51.8125 C-41.32996296 47.49241665 -37.79553549 44.74385586 -34 42 C-33.34 42 -32.68 42 -32 42 C-32 41.34 -32 40.68 -32 40 C-30.9226239 38.85311577 -29.8313421 37.71753779 -28.69140625 36.6328125 C-27.37848451 35.36537304 -26.10139359 34.06076943 -24.83984375 32.7421875 C-24.06769531 31.94039062 -23.29554688 31.13859375 -22.5 30.3125 C-21.7678125 29.54550781 -21.035625 28.77851563 -20.28125 27.98828125 C-17.92021233 25.93045904 -15.89546508 25.10137312 -13 24 C-12.11306697 21.95894361 -12.11306697 21.95894361 -12 20 C-11.34 20 -10.68 20 -10 20 C-9.56518311 19.13036621 -9.56518311 19.13036621 -9.12158203 18.24316406 C-6.08105469 12.16210938 -3.04052734 6.08105469 0 0 Z " fill="#E9E8C8" transform="translate(300,141)"/>
<path d="M0 0 C10.22262265 5.34140251 18.47634685 12.70661871 23.8671875 23.01953125 C24.49010178 25.51118837 24.31416424 26.88144404 23.4296875 29.26953125 C21.4296875 28.26953125 21.4296875 28.26953125 20.68359375 26.2734375 C20.22353208 24.64892597 19.76519164 23.02392598 19.30859375 21.3984375 C18.51976884 18.92701085 18.51976884 18.92701085 15.4296875 17.26953125 C15.3059375 16.60953125 15.1821875 15.94953125 15.0546875 15.26953125 C14.8484375 14.60953125 14.6421875 13.94953125 14.4296875 13.26953125 C12.77271371 12.57912551 11.1041114 11.91646775 9.4296875 11.26953125 C7.74205899 9.62409345 6.0756526 7.95664548 4.4296875 6.26953125 C-4.37418013 -0.52202378 -17.98763496 0.70759415 -28.5703125 0.26953125 C-28.5703125 -0.39046875 -28.5703125 -1.05046875 -28.5703125 -1.73046875 C-19.85486132 -4.63561914 -8.33618918 -3.58532149 0 0 Z " fill="#E8E6C9" transform="translate(275.5703125,91.73046875)"/>
<path d="M0 0 C1.1055189 0.93590504 2.20935453 1.87379858 3.3125 2.8125 C4.23482422 3.59560547 4.23482422 3.59560547 5.17578125 4.39453125 C5.77777344 4.92433594 6.37976563 5.45414063 7 6 C7.59167969 6.47824219 8.18335938 6.95648438 8.79296875 7.44921875 C10 9 10 9 9.90966797 10.74438477 C8.57429657 14.05557542 6.1699654 16.19799716 3.65234375 18.640625 C3.12105362 19.16767029 2.58976349 19.69471558 2.04237366 20.23773193 C0.34767175 21.91567187 -1.35717217 23.58286728 -3.0625 25.25 C-4.21487745 26.38732745 -5.36657852 27.52534066 -6.51757812 28.6640625 C-9.33727184 31.45071992 -12.16610588 34.22778792 -15 37 C-18.66752005 35.4608199 -20.98580573 33.24514548 -23.765625 30.4296875 C-24.65507812 29.53378906 -25.54453125 28.63789062 -26.4609375 27.71484375 C-27.38132813 26.77769531 -28.30171875 25.84054688 -29.25 24.875 C-30.19484856 23.92011363 -31.14015633 22.96568141 -32.0859375 22.01171875 C-34.39518338 19.67890913 -36.69963203 17.34155914 -39 15 C-38.34 14.67 -37.68 14.34 -37 14 C-33.58980912 15.25040332 -31.37277691 17.28825496 -29 20 C-29 20.66 -29 21.32 -29 22 C-28.34 22 -27.68 22 -27 22 C-27 22.66 -27 23.32 -27 24 C-26.34 24 -25.68 24 -25 24 C-22.875 25.875 -22.875 25.875 -21 28 C-21 28.66 -21 29.32 -21 30 C-20.34 30 -19.68 30 -19 30 C-19 30.66 -19 31.32 -19 32 C-18.34 32 -17.68 32 -17 32 C-17 32.66 -17 33.32 -17 34 C-16.01 34 -15.02 34 -14 34 C-13.773125 33.4225 -13.54625 32.845 -13.3125 32.25 C-12 30 -12 30 -9.625 28.125 C-6.68289253 25.74329396 -5.06950312 23.13993578 -3 20 C-2.34 20 -1.68 20 -1 20 C-0.34 18.68 0.32 17.36 1 16 C1.66 16 2.32 16 3 16 C3 15.34 3 14.68 3 14 C3.66 13.34 4.32 12.68 5 12 C5.99 12 6.98 12 8 12 C7.20882096 10.00016466 7.20882096 10.00016466 6 8 C5.01 7.67 4.02 7.34 3 7 C3 6.34 3 5.68 3 5 C2.34 5 1.68 5 1 5 C0.505 2.525 0.505 2.525 0 0 Z " fill="#DEDD81" transform="translate(187,30)"/>
<path d="M0 0 C1.609375 1.46484375 1.609375 1.46484375 2.609375 4.46484375 C0.31823727 3.32751639 -1.95963453 2.16977278 -4.23046875 0.9921875 C-5.25269531 0.46753906 -6.27492187 -0.05710937 -7.328125 -0.59765625 C-8.34777344 -1.12488281 -9.36742187 -1.65210937 -10.41796875 -2.1953125 C-20.89276523 -6.9165414 -33.09962788 -5.23005217 -43.5859375 -1.5078125 C-46.18631796 -0.60600925 -48.68327253 -0.00621575 -51.390625 0.46484375 C-38.94586007 -14.38858536 -14.07243584 -9.68121955 0 0 Z " fill="#E5E3C5" transform="translate(238.390625,69.53515625)"/>
<path d="M0 0 C0 0.66 0 1.32 0 2 C-0.85996582 1.97643433 -0.85996582 1.97643433 -1.73730469 1.95239258 C-17.72337188 1.09024642 -17.72337188 1.09024642 -33 5 C-33.33 5.99 -33.66 6.98 -34 8 C-35.98 8.33 -37.96 8.66 -40 9 C-40.33 9.99 -40.66 10.98 -41 12 C-44.44444444 15 -44.44444444 15 -47 15 C-44.99293799 8.64066764 -40.54935252 6.25840643 -35 3 C-23.63211606 -2.46248969 -12.15418012 -3.73974773 0 0 Z " fill="#E4E1C3" transform="translate(144,63)"/>
<path d="M0 0 C19.14 0 38.28 0 58 0 C58 0.66 58 1.32 58 2 C39.52 2 21.04 2 2 2 C2 6.29 2 10.58 2 15 C1.34 14.67 0.68 14.34 0 14 C0 9.38 0 4.76 0 0 Z " fill="#ECE9D1" transform="translate(94,215)"/>
<path d="M0 0 C3.84685385 1.24762828 6.02929405 2.3870391 8 6 C7.67 6.99 7.34 7.98 7 9 C-4.3349245 9.11514032 -15.66795969 9.0346091 -27 8.75 C-28.12712402 8.73590088 -29.25424805 8.72180176 -30.41552734 8.70727539 C-31.47465332 8.67496826 -32.5337793 8.64266113 -33.625 8.609375 C-34.56601563 8.58842773 -35.50703125 8.56748047 -36.4765625 8.54589844 C-39.67808053 7.85330998 -40.91483807 6.45838633 -43 4 C-42.67 3.34 -42.34 2.68 -42 2 C-41.59343674 2.48608231 -41.18687347 2.97216461 -40.76799011 3.47297668 C-38.58681007 5.35687454 -37.55940441 5.39062457 -34.7121582 5.43237305 C-33.85149246 5.45216721 -32.99082672 5.47196136 -32.1040802 5.49235535 C-31.17899155 5.49874527 -30.25390289 5.50513519 -29.30078125 5.51171875 C-28.35059616 5.52966995 -27.40041107 5.54762115 -26.4214325 5.56611633 C-23.38516687 5.62031893 -20.34905933 5.65414704 -17.3125 5.6875 C-15.25453525 5.72066428 -13.19659138 5.7551531 -11.13867188 5.79101562 C-6.09256181 5.8760512 -1.04649944 5.94281498 4 6 C2.68 4.02 1.36 2.04 0 0 Z " fill="#E9E9C8" transform="translate(142,178)"/>
<path d="M0 0 C1.32 0.33 2.64 0.66 4 1 C4 1.66 4 2.32 4 3 C4.66 3 5.32 3 6 3 C6.48533203 3.8156543 6.97066406 4.63130859 7.47070312 5.47167969 C10.32124468 8.32112064 10.83773457 8.38319463 14.66992188 8.55175781 C16.60312939 8.54419797 18.53635062 8.50952622 20.46875 8.453125 C21.50004028 8.44367859 22.53133057 8.43423218 23.59387207 8.42449951 C26.89671452 8.38990662 30.19776291 8.3212436 33.5 8.25 C36.7734341 8.19972871 40.04683891 8.15661574 43.32043457 8.11834717 C45.35530972 8.09235006 47.39010597 8.05843465 49.42468262 8.01495361 C56.33965228 7.89658185 63.1194531 8.31338325 70 9 C70 9.33 70 9.66 70 10 C62.05461078 10.18597297 54.11014154 10.32780852 46.16310883 10.41449738 C42.47221101 10.45612084 38.78280987 10.51249978 35.09277344 10.60351562 C31.52646871 10.69092157 27.96159609 10.73837059 24.39430237 10.75901794 C22.38213793 10.7808338 20.37054421 10.84321305 18.35925293 10.90637207 C11.8905857 10.9095225 7.88041174 10.70347943 3.10351562 6.07617188 C0 2.47059597 0 2.47059597 0 0 Z " fill="#EFEEC8" transform="translate(85,195)"/>
<path d="M0 0 C1.80929775 2.71394662 2.26978778 3.98787457 3 7 C3.309375 7.61875 3.61875 8.2375 3.9375 8.875 C5.25095209 11.50190419 6.09046328 14.21075405 7 17 C7.33 17.66 7.66 18.32 8 19 C7.67 19.66 7.34 20.32 7 21 C7.99 21.33 8.98 21.66 10 22 C11.01866229 23.65532623 12.01810813 25.32260138 13 27 C13.99 27.66 14.98 28.32 16 29 C16 29.66 16 30.32 16 31 C16.61875 31.226875 17.2375 31.45375 17.875 31.6875 C20.61410209 33.37929835 21.05024472 34.99244161 22 38 C19.63015338 36.03353152 17.3059815 34.03990671 15 32 C14.25492188 31.34644531 13.50984375 30.69289062 12.7421875 30.01953125 C4.66240151 22.50122191 -0.39573601 14.02239798 -1.08984375 2.86328125 C-1 1 -1 1 0 0 Z " fill="#F0F0CE" transform="translate(88,108)"/>
<path d="M0 0 C7.42843559 3.36048277 12.09653156 7.96878071 17.2578125 14.08203125 C18.86640582 15.85292659 20.47451982 17.24622675 22.375 18.6875 C25 21 25 21 26.125 23.5625 C26 26 26 26 24.1875 28.3125 C22 30 22 30 20 30 C20.5259375 29.13375 20.5259375 29.13375 21.0625 28.25 C22.19426824 25.53375622 21.98757657 24.72302667 21 22 C19.62906327 20.17065764 19.62906327 20.17065764 17.8671875 18.46875 C17.22523438 17.82292969 16.58328125 17.17710938 15.921875 16.51171875 C15.24640625 15.84785156 14.5709375 15.18398437 13.875 14.5 C13.22273437 13.83613281 12.57046875 13.17226562 11.8984375 12.48828125 C7.87824979 8.49202323 4.05400289 5.57294693 -1 3 C-0.67 2.01 -0.34 1.02 0 0 Z " fill="#EBE9CC" transform="translate(139,82)"/>
<path d="M0 0 C1.24523437 0.02707031 2.49046875 0.05414063 3.7734375 0.08203125 C4.71445313 0.11683594 5.65546875 0.15164062 6.625 0.1875 C6.625 1.1775 6.625 2.1675 6.625 3.1875 C6.01914063 3.14109375 5.41328125 3.0946875 4.7890625 3.046875 C-2.66687253 2.72569626 -9.47280587 3.78517371 -15.265625 8.8359375 C-18.1078394 11.99548652 -20.12925575 15.07654397 -21.375 19.1875 C-22.035 19.1875 -22.695 19.1875 -23.375 19.1875 C-23.7856003 15.69739741 -23.36115784 14.16135369 -21.6875 11 C-19.25737047 8.04443706 -17.87808299 7.41831294 -14.375 6.1875 C-14.045 5.1975 -13.715 4.2075 -13.375 3.1875 C-8.8379781 0.26500391 -5.33094902 -0.15087592 0 0 Z " fill="#E7E6CA" transform="translate(130.375,80.8125)"/>
<path d="M0 0 C-1.63778045 4.19625909 -4.73323182 6.98676785 -7.8828125 10.078125 C-8.45707977 10.64956238 -9.03134705 11.22099976 -9.62301636 11.80975342 C-11.4523581 13.62792945 -13.28854193 15.43901492 -15.125 17.25 C-16.36894774 18.48391329 -17.6124427 19.71828322 -18.85546875 20.953125 C-21.89842367 23.97406743 -24.94753254 26.98867092 -28 30 C-28.33 29.01 -28.66 28.02 -29 27 C-26.49465072 23.13758652 -23.22082539 20.38664229 -19.7265625 17.46484375 C-15.44344294 13.83097534 -11.85041508 9.7093527 -8.33203125 5.35546875 C-7.89246094 4.90816406 -7.45289063 4.46085938 -7 4 C-6.34 4 -5.68 4 -5 4 C-5 3.34 -5 2.68 -5 2 C-2 0 -2 0 0 0 Z " fill="#F1F0D8" transform="translate(215,144)"/>
<path d="M0 0 C0 0.66 0 1.32 0 2 C-1.65 2.33 -3.3 2.66 -5 3 C-5 3.66 -5 4.32 -5 5 C-5.9075 5.4125 -6.815 5.825 -7.75 6.25 C-10.80952394 7.89743597 -12.61885918 9.53381843 -15 12 C-15.66 12 -16.32 12 -17 12 C-17.66 13.32 -18.32 14.64 -19 16 C-19.66 16 -20.32 16 -21 16 C-21 16.66 -21 17.32 -21 18 C-21.66 18 -22.32 18 -23 18 C-23.33 18.99 -23.66 19.98 -24 21 C-25.65 21.33 -27.3 21.66 -29 22 C-10.66666667 0 -10.66666667 0 0 0 Z " fill="#E8E7CA" transform="translate(246,91)"/>
<path d="M0 0 C0.66 0.99 1.32 1.98 2 3 C-1.48614262 6.58419039 -5.01154655 10.06117525 -8.8125 13.3125 C-13.80434154 17.60803358 -18.38864644 22.30360098 -23 27 C-23.33 26.01 -23.66 25.02 -24 24 C-23.38125 23.773125 -22.7625 23.54625 -22.125 23.3125 C-19.80709666 22.19124075 -19.80709666 22.19124075 -19.25 19.8125 C-17.32996296 15.49241665 -13.79553549 12.74385586 -10 10 C-9.34 10 -8.68 10 -8 10 C-8 9.34 -8 8.68 -8 8 C-6.3777546 6.29006566 -4.70586575 4.62652316 -3 3 C-2.401875 2.401875 -1.80375 1.80375 -1.1875 1.1875 C-0.795625 0.795625 -0.40375 0.40375 0 0 Z " fill="#EDECD2" transform="translate(276,173)"/>
<path d="M0 0 C8.6287143 -0.57101786 14.59515562 0.20693956 21.25 5.9375 C23.21643941 8.2550893 25.13393616 10.60077507 27 13 C23.26135158 13 22.76357294 12.14037109 20.125 9.625 C15.50225558 5.21979649 11.5241925 3.83307416 5.1875 3.375 C4.21167969 3.30023438 3.23585938 3.22546875 2.23046875 3.1484375 C1.49441406 3.09945312 0.75835937 3.05046875 0 3 C0 2.01 0 1.02 0 0 Z " fill="#E6E6C7" transform="translate(253,108)"/>
<path d="M0 0 C0.98120464 3.05263664 0.98120464 4.94736336 0 8 C-0.66 8 -1.32 8 -2 8 C-2 6.68 -2 5.36 -2 4 C-6.67280503 3.71700885 -9.53813407 4.43862651 -13.6875 6.5625 C-16.51171875 8.00390625 -16.51171875 8.00390625 -19 9 C-19.99 8.67 -20.98 8.34 -22 8 C-8.67513928 -0.52576602 -8.67513928 -0.52576602 0 0 Z " fill="#D7D4BD" transform="translate(80,89)"/>
<path d="M0 0 C3.2917475 1.64587375 4.79705157 2.5529926 7.234375 5.0390625 C8.09482422 5.90917969 8.09482422 5.90917969 8.97265625 6.796875 C9.55917969 7.40015625 10.14570313 8.0034375 10.75 8.625 C11.35199219 9.23601563 11.95398438 9.84703125 12.57421875 10.4765625 C14.05405305 11.97988624 15.52764676 13.48934856 17 15 C16.01 15.495 16.01 15.495 15 16 C14.01 15.67 13.02 15.34 12 15 C12 14.34 12 13.68 12 13 C11.34 13 10.68 13 10 13 C8.64721885 11.01310269 7.31431695 9.01254782 6 7 C5.34 6.67 4.68 6.34 4 6 C4 5.34 4 4.68 4 4 C-0.40114397 4.50298788 -2.71195019 6.08772731 -6 9 C-6.66 8.67 -7.32 8.34 -8 8 C-5.36 5.36 -2.72 2.72 0 0 Z " fill="#DFDE86" transform="translate(170,14)"/>
<path d="M0 0 C0 4.07974553 -0.62091565 5.58101203 -3.375 8.625 C-6 11 -6 11 -9 12 C-9 12.66 -9 13.32 -9 14 C-10.75 15.5078125 -10.75 15.5078125 -13 17.125 C-13.7425 17.66382813 -14.485 18.20265625 -15.25 18.7578125 C-15.8275 19.16773438 -16.405 19.57765625 -17 20 C-17.66 19.67 -18.32 19.34 -19 19 C-12.73 12.73 -6.46 6.46 0 0 Z " fill="#F4F4DA" transform="translate(271,151)"/>
<path d="M0 0 C7.15801225 5.82628904 13.52591766 12.4382985 20 19 C19.34 19.33 18.68 19.66 18 20 C17.01 19.34 16.02 18.68 15 18 C15 17.34 15 16.68 15 16 C14.01 15.67 13.02 15.34 12 15 C12 14.34 12 13.68 12 13 C11.34 13 10.68 13 10 13 C8.82287058 11.82287058 7.65286632 10.63840242 6.5 9.4375 C5.04064065 7.89699698 5.04064065 7.89699698 3 7 C3 6.34 3 5.68 3 5 C2.34 4.67 1.68 4.34 1 4 C0.34 3.67 -0.32 3.34 -1 3 C-0.67 2.01 -0.34 1.02 0 0 Z " fill="#EEECD2" transform="translate(121,128)"/>
<path d="M0 0 C4.14745817 0.12568055 5.88863285 1.68089043 8.625 4.5625 C9.19476563 5.20316406 9.76453125 5.84382813 10.3515625 6.50390625 C11.99922659 8.33603059 11.99922659 8.33603059 15 8 C16.0260734 6.68662604 17.02727325 5.35335895 18 4 C18.66 4 19.32 4 20 4 C18.44499019 7.81684226 15.96404505 10.19195732 13 13 C13 12.34 13 11.68 13 11 C11.68 10.34 10.36 9.68 9 9 C9 8.34 9 7.68 9 7 C8.01 7 7.02 7 6 7 C6 6.34 6 5.68 6 5 C5.34 5 4.68 5 4 5 C2.61767557 3.37373596 1.28062485 1.7074998 0 0 Z " fill="#F2F0D2" transform="translate(158,74)"/>
<path d="M0 0 C0.66 0.33 1.32 0.66 2 1 C-0.75 6.875 -0.75 6.875 -3 8 C-4.72487541 12.79132057 -5.20705455 16.92716361 -5 22 C-5.99 22.33 -6.98 22.66 -8 23 C-7.82041956 14.41278987 -6.29508212 6.29508212 0 0 Z " fill="#EEEDD1" transform="translate(95,79)"/>
<path d="M0 0 C0.66 0.66 1.32 1.32 2 2 C1.67 2.66 1.34 3.32 1 4 C0.34 4 -0.32 4 -1 4 C-1.28875 4.763125 -1.5775 5.52625 -1.875 6.3125 C-3 9 -3 9 -5 12 C-5.99 12 -6.98 12 -8 12 C-8.66 12.66 -9.32 13.32 -10 14 C-10.99 13.67 -11.98 13.34 -13 13 C-8.71 8.71 -4.42 4.42 0 0 Z " fill="#EFEED1" transform="translate(208,121)"/>
<path d="M0 0 C3.16115776 1.36983503 3.9927092 1.9890638 6 5 C3.69 5 1.38 5 -1 5 C-1.33 5.99 -1.66 6.98 -2 8 C-2.99 8.33 -3.98 8.66 -5 9 C-6.20882096 11.00016466 -6.20882096 11.00016466 -7 13 C-7.66 12.01 -8.32 11.02 -9 10 C-6.1310659 6.49352499 -3.2682346 3.14718888 0 0 Z " fill="#EBE897" transform="translate(170,201)"/>
<path d="M0 0 C1.94347036 0.9039397 3.87959907 1.823675 5.8125 2.75 C6.89144531 3.26046875 7.97039062 3.7709375 9.08203125 4.296875 C11.9271395 5.95747366 13.2869693 7.23510835 15 10 C9.38425558 9.17415523 4.19607715 6.87330198 0 3 C0 2.01 0 1.02 0 0 Z " fill="#EFEDCF" transform="translate(144,63)"/>
<path d="M0 0 C0 2.71929057 -0.05620165 4.4832044 -1 7 C-2.31787285 8.02028865 -3.65210653 9.01971384 -5 10 C-6.2516467 12.08334635 -6.2516467 12.08334635 -7 14 C-7.66 13.34 -8.32 12.68 -9 12 C-8.74923045 8.14947394 -6.63388355 6.31798433 -3.9375 3.75 C-3.20402344 3.04359375 -2.47054687 2.3371875 -1.71484375 1.609375 C-1.14894531 1.07828125 -0.58304688 0.5471875 0 0 Z " fill="#ECE889" transform="translate(154,30)"/>
<path d="M0 0 C0.33 0.66 0.66 1.32 1 2 C1.99 1.67 2.98 1.34 4 1 C3.67 1.99 3.34 2.98 3 4 C1.02 4.33 -0.96 4.66 -3 5 C-3.33 5.99 -3.66 6.98 -4 8 C-7.44444444 11 -7.44444444 11 -10 11 C-8.67367286 5.36310966 -4.53368235 3.06814317 0 0 Z " fill="#EBEACC" transform="translate(107,67)"/>
<path d="M0 0 C0.66 0 1.32 0 2 0 C3.2062252 3.61867559 3.10816918 6.92506251 3.0625 10.6875 C3.05798828 11.38939453 3.05347656 12.09128906 3.04882812 12.81445312 C3.03706927 14.54300538 3.01913454 16.27151365 3 18 C2.34 17.67 1.68 17.34 1 17 C0.5859375 14.9609375 0.5859375 14.9609375 0.375 12.375 C0.30152344 11.4778125 0.22804688 10.580625 0.15234375 9.65625 C-0.03305187 6.42371091 -0.07036151 3.23662942 0 0 Z " fill="#E6E7C3" transform="translate(299,122)"/>
<path d="M0 0 C3.5218253 1.95656961 6.34442785 3.95100975 9 7 C9 7.66 9 8.32 9 9 C9.61875 9.226875 10.2375 9.45375 10.875 9.6875 C13.61410209 11.37929835 14.05024472 12.99244161 15 16 C9.75715884 11.6309657 4.48058696 7.16722236 0 2 C0 1.34 0 0.68 0 0 Z " fill="#E5E5CA" transform="translate(95,130)"/>
<path d="M0 0 C0.99 0.33 1.98 0.66 3 1 C3.66666667 3 4.33333333 5 5 7 C6.28359547 8.86812511 7.64135838 10.63096027 9.07421875 12.38671875 C9.37972656 12.91910156 9.68523438 13.45148438 10 14 C9.67 14.99 9.34 15.98 9 17 C0 5.52427184 0 5.52427184 0 0 Z " fill="#E5E5C6" transform="translate(43,147)"/>
<path d="M0 0 C4.84395662 2.04936626 9.04201437 5.04048394 11.375 9.8125 C11.58125 10.534375 11.7875 11.25625 12 12 C8.60140297 10.53033642 6.35036291 8.61962486 3.75 6 C3.04359375 5.29875 2.3371875 4.5975 1.609375 3.875 C0 2 0 2 0 0 Z " fill="#E6E5C3" transform="translate(158,116)"/>
<path d="M0 0 C0.66 0.33 1.32 0.66 2 1 C0.55049545 4.7910119 -1.15172566 8.3874638 -3 12 C-3.66 12 -4.32 12 -5 12 C-5.56705966 7.17999289 -3.84482 4.79309334 -1 1 C-0.67 0.67 -0.34 0.34 0 0 Z " fill="#EDECD1" transform="translate(112,88)"/>
<path d="M0 0 C0.99 0.33 1.98 0.66 3 1 C3 1.99 3 2.98 3 4 C2.443125 4.0825 1.88625 4.165 1.3125 4.25 C-1.69714206 5.22610013 -3.62154752 6.95188814 -6 9 C-6.66 8.67 -7.32 8.34 -8 8 C-5.36 5.36 -2.72 2.72 0 0 Z " fill="#D4D287" transform="translate(170,14)"/>
<path d="M0 0 C0.33 0 0.66 0 1 0 C1.99 4.62 2.98 9.24 4 14 C3.01 14 2.02 14 1 14 C1 12.35 1 10.7 1 9 C0.34 8.67 -0.32 8.34 -1 8 C-0.67 5.36 -0.34 2.72 0 0 Z " fill="#F2F1D5" transform="translate(107,103)"/>
<path d="M0 0 C3.96 1.98 3.96 1.98 8 4 C8 4.99 8 5.98 8 7 C5.0280615 5.87548273 2.66559313 4.77706209 0 3 C0 2.01 0 1.02 0 0 Z " fill="#ECE8D0" transform="translate(277,93)"/>
<path d="M0 0 C1.65 0 3.3 0 5 0 C5.98120464 3.05263664 5.98120464 4.94736336 5 8 C4.34 8 3.68 8 3 8 C3 6.68 3 5.36 3 4 C2.01 4 1.02 4 0 4 C0 2.68 0 1.36 0 0 Z " fill="#E0DEC6" transform="translate(75,89)"/>
<path d="M0 0 C0.99 0.66 1.98 1.32 3 2 C2.01 2.33 1.02 2.66 0 3 C0 3.66 0 4.32 0 5 C-0.99 5.33 -1.98 5.66 -3 6 C-3.99 7.485 -3.99 7.485 -5 9 C-5.99 8.67 -6.98 8.34 -8 8 C-5.36 5.36 -2.72 2.72 0 0 Z " fill="#EEEDCF" transform="translate(186,69)"/>
<path d="M0 0 C0.99 0.33 1.98 0.66 3 1 C-0.3 4.3 -3.6 7.6 -7 11 C-7.33 10.01 -7.66 9.02 -8 8 C-7.236875 7.4225 -6.47375 6.845 -5.6875 6.25 C-3.33799083 4.28296907 -1.70676495 2.51523256 0 0 Z " fill="#D6D584" transform="translate(183,52)"/>
<path d="M0 0 C4.22271781 2.53363068 6.78310162 4.56620325 9 9 C4.74822077 8.52758009 2.70030797 6.15035929 0 3 C0 2.01 0 1.02 0 0 Z " fill="#E7E6AF" transform="translate(53,162)"/>
<path d="M0 0 C0.66 0.66 1.32 1.32 2 2 C1.67 2.66 1.34 3.32 1 4 C0.34 4 -0.32 4 -1 4 C-1.33 4.99 -1.66 5.98 -2 7 C-3.65 7.33 -5.3 7.66 -7 8 C-6.02133662 6.85373678 -5.04205413 5.70800212 -4.0625 4.5625 C-3.51722656 3.92441406 -2.97195312 3.28632812 -2.41015625 2.62890625 C-1.63204305 1.73008851 -0.84063472 0.84063472 0 0 Z " fill="#EBEBD0" transform="translate(216,113)"/>
<path d="M0 0 C2.49361571 1.20381448 4.68143083 2.45428722 7 4 C7.66 4 8.32 4 9 4 C9 3.34 9 2.68 9 2 C9.99 2.33 10.98 2.66 12 3 C10.68 4.32 9.36 5.64 8 7 C4.2047869 5.50902342 2.38957269 3.24299151 0 0 Z " fill="#E5E394" transform="translate(164,214)"/>
<path d="M0 0 C0.66 0 1.32 0 2 0 C2.25028811 1.58013217 2.47440946 3.16442306 2.6875 4.75 C2.87892578 6.07257813 2.87892578 6.07257813 3.07421875 7.421875 C2.98397191 10.55676517 2.07384637 11.71823587 0 14 C-0.95887017 10.89610175 -0.99220191 8.52200194 -0.5625 5.3125 C-0.46066406 4.52488281 -0.35882813 3.73726562 -0.25390625 2.92578125 C-0.17011719 2.29027344 -0.08632813 1.65476563 0 1 C0 0.67 0 0.34 0 0 Z " fill="#F2F3CB" transform="translate(298,131)"/>
<path d="M0 0 C3.40320742 1.01176437 4.75725331 1.64843582 6.8125 4.625 C7.204375 5.40875 7.59625 6.1925 8 7 C6.68 7.33 5.36 7.66 4 8 C3.896875 7.4225 3.79375 6.845 3.6875 6.25 C2.90207202 3.67950842 1.69495803 2.06342716 0 0 Z " fill="#EAE9C8" transform="translate(142,178)"/>
<path d="M0 0 C1.17539996 0.92652701 2.34010577 1.86663387 3.5 2.8125 C4.1496875 3.33457031 4.799375 3.85664063 5.46875 4.39453125 C7 6 7 6 7 9 C6.34 8.67 5.68 8.34 5 8 C5 7.34 5 6.68 5 6 C4.01 5.67 3.02 5.34 2 5 C0.8125 2.4375 0.8125 2.4375 0 0 Z " fill="#F1F0D8" transform="translate(151,158)"/>
<path d="M0 0 C2.475 0.99 2.475 0.99 5 2 C5 2.66 5 3.32 5 4 C5.99 4 6.98 4 8 4 C7.67 5.32 7.34 6.64 7 8 C5.83035398 6.8572081 4.66435444 5.71068285 3.5 4.5625 C2.8503125 3.92441406 2.200625 3.28632813 1.53125 2.62890625 C0 1 0 1 0 0 Z " fill="#E9E8CD" transform="translate(118,154)"/>
<path d="M0 0 C0.66 0.33 1.32 0.66 2 1 C-0.31 3.31 -2.62 5.62 -5 8 C-5.33 7.01 -5.66 6.02 -6 5 C-5.01 4.67 -4.02 4.34 -3 4 C-3 3.34 -3 2.68 -3 2 C-2.01 1.34 -1.02 0.68 0 0 Z " fill="#DEDDC8" transform="translate(290,161)"/>
<path d="M0 0 C3.91402949 1.26941497 5.79072873 2.51167694 8 6 C7.67 6.66 7.34 7.32 7 8 C5.83035398 6.8572081 4.66435444 5.71068285 3.5 4.5625 C2.8503125 3.92441406 2.200625 3.28632813 1.53125 2.62890625 C0 1 0 1 0 0 Z " fill="#E5E5CA" transform="translate(110,146)"/>
<path d="M0 0 C0 0.33 0 0.66 0 1 C-5.41538462 1.36923077 -5.41538462 1.36923077 -8.375 -0.5 C-8.91125 -0.995 -9.4475 -1.49 -10 -2 C-5.82412255 -3.39195915 -3.86525224 -1.82323219 0 0 Z " fill="#ECEACE" transform="translate(229,86)"/>
<path d="M0 0 C0.33 1.32 0.66 2.64 1 4 C-1.375 5.5625 -1.375 5.5625 -4 7 C-4.66 6.67 -5.32 6.34 -6 6 C-4.02 4.02 -2.04 2.04 0 0 Z " fill="#ECE792" transform="translate(161,23)"/>
<path d="M0 0 C0.33 0.99 0.66 1.98 1 3 C-1.97 5.475 -1.97 5.475 -5 8 C-5.66 7.67 -6.32 7.34 -7 7 C-4.69 4.69 -2.38 2.38 0 0 Z " fill="#F6F7E6" transform="translate(259,163)"/>
<path d="M0 0 C1.1725131 0.95117134 2.33787015 1.91117009 3.5 2.875 C4.47453125 3.67550781 4.47453125 3.67550781 5.46875 4.4921875 C5.9740625 4.98976562 6.479375 5.48734375 7 6 C7 6.66 7 7.32 7 8 C2.8575633 6.61918777 1.67796901 4.40174442 -1 1 C-0.67 0.67 -0.34 0.34 0 0 Z " fill="#EEECD5" transform="translate(141,148)"/>
</svg>
