<?xml version="1.0" encoding="UTF-8"?>
<svg version="1.1" xmlns="http://www.w3.org/2000/svg" width="2000" height="1400">
<path d="M0 0 C0.98216492 0.00060425 1.96432983 0.0012085 2.97625732 0.00183105 C20.16486589 0.0303414 37.18937893 0.5789975 54.3125 2.1875 C54.98827087 2.25066406 55.66404175 2.31382813 56.36029053 2.37890625 C133.63811742 9.67546753 207.12641992 31.63382965 381.3125 136.1875 C381.90289063 136.67879395 382.49328125 137.17008789 383.1015625 137.67626953 C390.31486978 143.69072838 397.37115485 149.86044446 404.3125 156.1875 C405.18922363 156.97938721 406.06594727 157.77127441 406.96923828 158.5871582 C413.99925561 164.9700383 420.81373676 171.53182028 427.5144043 178.2590332 C429.13802229 179.88806572 430.76699603 181.51160728 432.39648438 183.13476562 C437.91247435 188.64688246 443.2688057 194.2353699 448.3125 200.1875 C449.33403891 201.35582944 450.35746174 202.52251449 451.3828125 203.6875 C482.07883322 238.78857639 508.1289384 277.19297078 530.3125 318.1875 C530.91425049 319.29037354 531.51600098 320.39324707 532.13598633 321.52954102 C536.93199796 330.3717716 541.34998612 339.33777526 545.5 348.5 C545.81754242 349.19937683 546.13508484 349.89875366 546.46224976 350.61932373 C567.56440609 397.27487761 582.94069473 446.64151354 591.3125 497.1875 C591.48974609 498.25081543 591.66699219 499.31413086 591.84960938 500.40966797 C597.08850581 532.41516435 599.54580315 564.41127507 599.5625 596.8125 C599.56351212 598.58978989 599.56351212 598.58978989 599.56454468 600.40298462 C599.4841589 689.89639373 578.69628345 777.11917388 446.54296875 997.7109375 C445.2909131 999.10113589 444.04529944 1000.49743479 442.82366943 1001.91444397 C438.69204475 1006.70443195 434.38920616 1011.25780099 429.91015625 1015.72265625 C429.22876083 1016.40500839 428.54736542 1017.08736053 427.84532166 1017.79039001 C426.41544259 1019.22094437 424.98432089 1020.65025767 423.55200195 1022.07836914 C421.38052289 1024.24449074 419.21443675 1026.41590174 417.04882812 1028.58789062 C415.64875798 1029.98729987 414.24837762 1031.38639884 412.84765625 1032.78515625 C412.21094498 1033.42389175 411.5742337 1034.06262726 410.91822815 1034.72071838 C406.5435953 1039.07301876 401.99330725 1043.1679651 397.3125 1047.1875 C396.19473735 1048.16079821 395.07745129 1049.13464442 393.9609375 1050.109375 C386.47615252 1056.59204612 378.83967454 1062.82977387 371.00195312 1068.88037109 C369.37586787 1070.13847231 367.75743345 1071.4057913 366.140625 1072.67578125 C302.68528867 1122.16147264 228.3776593 1158.20057993 43.3125 1195.1875 C42.04204834 1195.27362549 40.77159668 1195.35975098 39.46264648 1195.44848633 C27.18330335 1196.238481 14.92716064 1196.38844186 2.625 1196.375 C1.59581451 1196.37439575 0.56662903 1196.3737915 -0.4937439 1196.37316895 C-87.49179819 1196.23526499 -174.03625319 1177.61210511 -313.6875 1107.1875 C-314.50444336 1106.68025391 -315.32138672 1106.17300781 -316.16308594 1105.65039062 C-356.0876803 1080.70827006 -392.24519908 1050.56116391 -425.6003418 1017.44989014 C-426.65632994 1016.40206433 -427.71378057 1015.3557103 -428.77270508 1014.31085205 C-430.25998558 1012.8413219 -431.74031331 1011.3651395 -433.21875 1009.88671875 C-434.51135742 1008.60027466 -434.51135742 1008.60027466 -435.83007812 1007.2878418 C-437.6875 1005.1875 -437.6875 1005.1875 -437.6875 1003.1875 C-438.3475 1003.1875 -439.0075 1003.1875 -439.6875 1003.1875 C-441.08075954 1001.63509659 -442.40130128 1000.01720015 -443.6875 998.375 C-446.86004687 994.40171446 -450.0941882 990.59817177 -453.5625 986.875 C-458.77609964 981.19547004 -463.51437513 975.22480321 -468.20605469 969.11474609 C-469.74785098 967.10898803 -471.29932754 965.1109689 -472.8515625 963.11328125 C-494.48349106 935.17244564 -513.23435255 905.45368684 -529.6875 874.1875 C-530.47060547 872.69935791 -530.47060547 872.69935791 -531.26953125 871.18115234 C-540.44678397 853.59979136 -548.32142793 835.58545522 -555.6875 817.1875 C-555.96873718 816.48832458 -556.24997437 815.78914917 -556.53973389 815.06878662 C-560.9973586 803.94993099 -564.98105657 792.74295913 -568.5625 781.3125 C-568.81695892 780.50279755 -569.07141785 779.69309509 -569.33358765 778.8588562 C-582.37076503 737.18492287 -590.70580996 694.66560335 -594.6875 651.1875 C-594.80464355 649.93227539 -594.92178711 648.67705078 -595.04248047 647.38378906 C-598.05565709 613.56278426 -597.96573991 578.97757286 -594.6875 545.1875 C-594.62197937 544.5093927 -594.55645874 543.8312854 -594.48895264 543.13262939 C-590.38024882 500.97715964 -582.5701668 459.56900372 -569.6875 419.1875 C-569.34106445 418.09066895 -568.99462891 416.99383789 -568.63769531 415.86376953 C-559.92405204 388.43532518 -549.17832192 362.09901167 -536.6875 336.1875 C-536.02451904 334.80377197 -536.02451904 334.80377197 -535.34814453 333.39208984 C-524.94707411 311.77362133 -512.79221827 291.26462645 -499.6875 271.1875 C-499.23810059 270.49221191 -498.78870117 269.79692383 -498.32568359 269.08056641 C-485.68148196 249.51979408 -471.44966472 230.98162203 -456.31640625 213.2890625 C-453.8202295 210.363014 -451.40823366 207.37393248 -449 204.375 C-445.80581705 200.44632578 -442.47695732 196.81660728 -438.8046875 193.33203125 C-436.98451792 191.48835394 -435.31321895 189.60619866 -433.62890625 187.640625 C-429.36945088 182.73602074 -424.80051188 178.14990271 -420.19946289 173.5690918 C-418.75225615 172.12724779 -417.31047974 170.68012884 -415.86914062 169.23242188 C-411.19534371 164.55527069 -406.46373843 159.99999273 -401.44165039 155.6965332 C-398.85372963 153.470237 -396.37296556 151.13927631 -393.875 148.8125 C-388.32902415 143.70179341 -382.60467338 138.8651831 -376.6875 134.1875 C-376.04570801 133.67848145 -375.40391602 133.16946289 -374.74267578 132.64501953 C-353.05839288 115.48893985 -330.56932625 99.68687884 -306.84179688 85.48144531 C-304.81979768 84.26696257 -302.80766705 83.03760434 -300.796875 81.8046875 C-250.69836594 51.38008351 -194.70863304 29.46516226 -137.6875 16.1875 C-137.02576782 16.03323547 -136.36403564 15.87897095 -135.68225098 15.72003174 C-91.07588701 5.37713108 -45.81232932 -0.05257839 0 0 Z " fill="#1877F2" transform="translate(998.6875,101.8125)"/>
<path d="M0 0 C1.02549957 -0.00100708 2.05099915 -0.00201416 3.10757446 -0.00305176 C31.32791334 0.01547357 59.33487516 2.11390893 87.375 5.1875 C88.04453705 5.26077515 88.7140741 5.33405029 89.40390015 5.4095459 C103.79811978 7.01166488 118.09605235 9.20122176 132.4375 11.25 C132.4375 60.09 132.4375 108.93 132.4375 159.25 C87.9375 159.4375 87.9375 159.4375 74.04492188 159.45776367 C30.72911321 159.55309829 30.72911321 159.55309829 -7.71875 177.9296875 C-9.5625 179.25 -9.5625 179.25 -11.5625 179.25 C-11.789375 179.806875 -12.01625 180.36375 -12.25 180.9375 C-13.93800036 183.91159588 -16.02926517 185.97008865 -18.5625 188.25 C-19.2225 188.25 -19.8825 188.25 -20.5625 188.25 C-20.81 188.971875 -21.0575 189.69375 -21.3125 190.4375 C-22.5625 193.25 -22.5625 193.25 -24.41796875 195.4765625 C-26.83597313 198.60367199 -28.49408604 201.86414919 -30.125 205.4375 C-30.41568359 206.04658203 -30.70636719 206.65566406 -31.00585938 207.28320312 C-34.91307569 215.71824507 -37.04261703 224.42622791 -38.21801758 233.62133789 C-38.34420125 234.60767495 -38.47038492 235.59401201 -38.60039234 236.61023808 C-40.06617234 249.14853442 -40.04381709 261.70104055 -40.07421875 274.30859375 C-40.08973811 276.62830486 -40.10654416 278.94800771 -40.12463379 281.2677002 C-40.18190674 289.74087628 -40.2145536 298.21420449 -40.25 306.6875 C-40.353125 325.683125 -40.45625 344.67875 -40.5625 364.25 C14.2175 364.25 68.9975 364.25 125.4375 364.25 C124.3124842 377.75018955 124.3124842 377.75018955 123.54692078 382.73260498 C123.37462952 383.86715622 123.20233826 385.00170746 123.02482605 386.17063904 C122.83834 387.37084183 122.65185394 388.57104462 122.4597168 389.80761719 C122.26117096 391.10705765 122.06262512 392.40649811 121.85806274 393.74531555 C121.31820481 397.27767471 120.77329113 400.80923636 120.22732139 404.34065533 C119.65117891 408.07256084 119.07952417 411.80515405 118.50727844 415.53765869 C117.54415405 421.81540928 116.57793753 428.09267748 115.60961914 434.36962891 C114.50037018 441.56024264 113.39495392 448.75143656 112.29188985 455.94300151 C111.10590956 463.6750989 109.91752928 471.40682594 108.72822976 479.13841343 C108.39153695 481.3280406 108.05521795 483.51772492 107.71896935 485.70742035 C107.18282665 489.19782389 106.64500887 492.68796598 106.10606766 496.17793846 C105.82200267 498.01948352 105.53933244 499.86124357 105.25675964 501.70301819 C103.42072486 513.57131356 101.41236456 525.40081266 99.4375 537.25 C53.5675 537.25 7.6975 537.25 -39.5625 537.25 C-39.5625 674.86 -39.5625 812.47 -39.5625 954.25 C-44.1215615 955.76968717 -47.61515084 956.66661548 -52.27734375 957.25 C-53.58590332 957.4140332 -54.89446289 957.57806641 -56.24267578 957.74707031 C-57.66163031 957.91600822 -59.08074402 958.0836136 -60.5 958.25 C-61.23200623 958.33648804 -61.96401245 958.42297607 -62.71820068 958.51208496 C-110.46378619 964.10066619 -158.45308739 963.69521665 -206.1875 958.25 C-207.29927109 958.12461853 -207.29927109 958.12461853 -208.4335022 957.9967041 C-210.53232993 957.75647559 -212.62953713 957.50543729 -214.7265625 957.25 C-215.92748535 957.105625 -217.1284082 956.96125 -218.36572266 956.8125 C-221.5625 956.25 -221.5625 956.25 -226.5625 954.25 C-226.5625 816.64 -226.5625 679.03 -226.5625 537.25 C-276.7225 537.25 -326.8825 537.25 -378.5625 537.25 C-378.5625 480.16 -378.5625 423.07 -378.5625 364.25 C-328.4025 364.25 -278.2425 364.25 -226.5625 364.25 C-226.59730469 353.13441406 -226.63210938 342.01882813 -226.66796875 330.56640625 C-226.68331645 323.47981558 -226.69788471 316.39323713 -226.70898438 309.30664062 C-226.72670366 298.08467439 -226.74739811 286.86277629 -226.78881836 275.64086914 C-226.81898564 267.46371859 -226.83813687 259.28662395 -226.84476548 251.10941929 C-226.84863215 246.79094471 -226.857534 242.47262991 -226.87969017 238.15420723 C-226.97432038 218.96370241 -226.57923918 200.26189735 -223.5625 181.25 C-223.45283464 180.54641672 -223.34316929 179.84283344 -223.23018074 179.11792946 C-222.67483337 175.59982404 -222.04047547 172.11148703 -221.3125 168.625 C-221.10270508 167.60760742 -220.89291016 166.59021484 -220.67675781 165.54199219 C-209.34405854 112.63970914 -180.88928165 65.3799208 -135.2890625 35.4140625 C-104.46183772 15.6660701 -69.76743793 5.30433578 -33.5625 1.25 C-32.72887939 1.15428711 -31.89525879 1.05857422 -31.03637695 0.95996094 C-20.71960169 -0.06464716 -10.3570872 0.00709297 0 0 Z " fill="#FEFEFE" transform="translate(1133.5625,335.75)"/>
</svg>
