<?xml version="1.0" encoding="UTF-8"?>
<svg version="1.1" xmlns="http://www.w3.org/2000/svg" width="512" height="512">
<path d="M0 0 C4.59102098 3.55954051 8.88885239 7.45500432 13.18652344 11.35888672 C50.54315431 45.16492775 95.99101872 59.27365988 145.34570312 64.23583984 C162.06763304 65.92895462 177.08422047 71.69723183 188 85 C200.01429357 102.13846216 200.31102018 119.8198341 200.265625 139.9765625 C200.2669766 142.11290531 200.26892123 144.24924782 200.27142334 146.3855896 C200.27436024 150.85539692 200.2701293 155.32512395 200.26074219 159.79492188 C200.24944421 165.4415925 200.25603911 171.08807265 200.26762676 176.73473644 C200.34627341 221.88079262 200.34627341 221.88079262 198 244 C197.89055054 245.06531952 197.78110107 246.13063904 197.66833496 247.22824097 C191.58106278 305.94998901 175.13049853 363.18966996 138 410 C137.23042969 410.98226563 136.46085937 411.96453125 135.66796875 412.9765625 C123.18118268 428.59066977 108.9950398 442.97067254 93 455 C92.40864258 455.4527832 91.81728516 455.90556641 91.20800781 456.37207031 C48.41416855 489 48.41416855 489 35 489 C34.67 489.66 34.34 490.32 34 491 C32.28041191 491.83834081 30.51862926 492.59081421 28.7421875 493.30078125 C27.65389648 493.73986816 26.56560547 494.17895508 25.44433594 494.63134766 C24.30770508 495.08300293 23.17107422 495.5346582 22 496 C19.85672594 496.86837878 17.71349625 497.73686709 15.5703125 498.60546875 C13.4222357 499.46704567 11.27379707 500.32772103 9.125 501.1875 C8.03703125 501.62513672 6.9490625 502.06277344 5.828125 502.51367188 C4.77367187 502.93583984 3.71921875 503.35800781 2.6328125 503.79296875 C1.69324707 504.1696167 0.75368164 504.54626465 -0.21435547 504.93432617 C-6.37807945 507.29231523 -11.2681508 508.33997418 -17.8125 508.3125 C-18.56853516 508.32861328 -19.32457031 508.34472656 -20.10351562 508.36132812 C-30.92808951 508.37055624 -40.56266132 503.1918961 -50.35546875 499.05273438 C-51.29777344 498.66021484 -52.24007812 498.26769531 -53.2109375 497.86328125 C-54.05962402 497.50532471 -54.90831055 497.14736816 -55.78271484 496.77856445 C-58.08009488 495.83434823 -58.08009488 495.83434823 -61 496 C-61 495.34 -61 494.68 -61 494 C-62.2065625 493.62875 -62.2065625 493.62875 -63.4375 493.25 C-67.75308735 491.73575882 -71.85772375 489.93348907 -76 488 C-77.32837891 487.38511719 -77.32837891 487.38511719 -78.68359375 486.7578125 C-85.69306241 483.39098495 -92.2274342 479.47498332 -98.74438477 475.25146484 C-102.09939241 472.84318432 -102.09939241 472.84318432 -106 472 C-106 471.34 -106 470.68 -106 470 C-106.68707031 469.76410156 -107.37414062 469.52820313 -108.08203125 469.28515625 C-111.59358844 467.7385668 -114.58480595 465.6617416 -117.6875 463.4375 C-121.70970455 460.5019847 -121.70970455 460.5019847 -126 458 C-126 457.34 -126 456.68 -126 456 C-126.99 456 -127.98 456 -129 456 C-130.72425443 454.39298344 -132.38301604 452.71491061 -134 451 C-135.7601867 449.36347365 -137.53130919 447.7386403 -139.3125 446.125 C-140.27542969 445.25230469 -141.23835938 444.37960937 -142.23046875 443.48046875 C-144.50844816 441.44024742 -146.80628702 439.43094262 -149.125 437.4375 C-154.76893401 432.52368476 -160.20390636 427.30561338 -164.9375 421.5 C-166.75403019 418.95409402 -166.75403019 418.95409402 -169 418 C-169.495 416.515 -169.495 416.515 -170 415 C-171.5232886 413.76840496 -173.04743219 412.53778539 -174.58203125 411.3203125 C-176.54791128 409.48982365 -177.12190454 407.50884417 -178 405 C-179.32381517 403.32576317 -180.65576661 401.65788785 -182 400 C-182 399.34 -182 398.68 -182 398 C-182.66 398 -183.32 398 -184 398 C-184.495 396.515 -184.495 396.515 -185 395 C-185.66 394.34 -186.32 393.68 -187 393 C-199 376.87951807 -199 376.87951807 -199 370 C-199.66 369.67 -200.32 369.34 -201 369 C-201.91381836 367.34521484 -201.91381836 367.34521484 -202.83984375 365.2109375 C-203.18080078 364.43363281 -203.52175781 363.65632813 -203.87304688 362.85546875 C-204.22431641 362.03691406 -204.57558594 361.21835937 -204.9375 360.375 C-205.28490234 359.57964844 -205.63230469 358.78429687 -205.99023438 357.96484375 C-207.00098798 355.64639198 -208.00158346 353.3237865 -209 351 C-209.42394043 350.02293091 -209.42394043 350.02293091 -209.85644531 349.02612305 C-213.56010453 340.46575675 -216.47101659 331.68201488 -219.20776367 322.77490234 C-220.30048875 319.21855573 -221.44144852 315.69280645 -222.6875 312.1875 C-224.09754821 308.04449317 -224.81587961 303.85268418 -225.53515625 299.54296875 C-225.97918068 296.84517334 -225.97918068 296.84517334 -227 293.6875 C-228.57345784 287.8853742 -229.20955396 281.95159373 -230 276 C-230.59066212 271.42185579 -230.59066212 271.42185579 -231.53125 266.91015625 C-232.36337572 263.51924395 -232.45482747 260.03200282 -232.71875 256.55859375 C-232.92192599 253.88309534 -232.92192599 253.88309534 -234 251 C-234.26989945 247.96737983 -234.4447446 244.93671698 -234.61283302 241.89707184 C-234.8173193 238.2089318 -235.02744136 234.5213743 -235.25521851 230.83459473 C-235.90578298 220.10705308 -236.21801888 209.40160747 -236.3515625 198.65625 C-236.37481209 196.95064103 -236.39820214 195.24503397 -236.42172241 193.53942871 C-236.46968105 189.98985627 -236.51463824 186.44026107 -236.55761719 182.890625 C-236.60129546 179.31111375 -236.64983214 175.73172467 -236.703125 172.15234375 C-237.20744568 138.18296267 -237.20744568 138.18296267 -236.7109375 122.15625 C-236.68705963 121.16387329 -236.66318176 120.17149658 -236.63858032 119.14904785 C-236.29334342 110.61164048 -234.25750118 102.88083417 -231 95 C-230.34 95 -229.68 95 -229 95 C-228.7834375 94.14148438 -228.566875 93.28296875 -228.34375 92.3984375 C-226.71785379 88.28643256 -224.51799183 85.78336354 -221.5 82.625 C-221.00113281 82.07972656 -220.50226563 81.53445312 -219.98828125 80.97265625 C-218.70686813 79.60192211 -217.35788564 78.29502056 -216 77 C-215.34 77 -214.68 77 -214 77 C-214 76.34 -214 75.68 -214 75 C-211.88009448 73.8850641 -209.75479674 72.78326499 -207.625 71.6875 C-207.04105469 71.37876953 -206.45710938 71.07003906 -205.85546875 70.75195312 C-196.16638816 65.80322917 -186.70207296 64.47658807 -175.9375 63.625 C-134.42636923 59.87092778 -95.43771498 47.33418712 -62 22 C-60.6696875 21.00613281 -60.6696875 21.00613281 -59.3125 19.9921875 C-55.22951596 16.88965687 -51.62438514 13.6352366 -48 10 C-34.9814114 -1.95058557 -16.90219844 -11.0912782 0 0 Z " fill="#00DB7F" transform="translate(275,4)"/>
<path d="M0 0 C14.02714893 -0.09524113 21.14721782 6.23946643 31.18652344 15.35888672 C68.54315431 49.16492775 113.99101872 63.27365988 163.34570312 68.23583984 C180.06763304 69.92895462 195.08422047 75.69723183 206 89 C218.01429357 106.13846216 218.31102018 123.8198341 218.265625 143.9765625 C218.2669766 146.11290531 218.26892123 148.24924782 218.27142334 150.3855896 C218.27436024 154.85539692 218.2701293 159.32512395 218.26074219 163.79492188 C218.24944421 169.4415925 218.25603911 175.08807265 218.26762676 180.73473644 C218.34627341 225.88079262 218.34627341 225.88079262 216 248 C215.89055054 249.06531952 215.78110107 250.13063904 215.66833496 251.22824097 C209.58106278 309.94998901 193.13049853 367.18966996 156 414 C155.23042969 414.98226563 154.46085938 415.96453125 153.66796875 416.9765625 C141.18118268 432.59066977 126.9950398 446.97067254 111 459 C110.40864258 459.4527832 109.81728516 459.90556641 109.20800781 460.37207031 C66.41416855 493 66.41416855 493 53 493 C52.67 493.66 52.34 494.32 52 495 C50.28041191 495.83834081 48.51862926 496.59081421 46.7421875 497.30078125 C45.65389648 497.73986816 44.56560547 498.17895508 43.44433594 498.63134766 C42.30770508 499.08300293 41.17107422 499.5346582 40 500 C37.85672594 500.86837878 35.71349625 501.73686709 33.5703125 502.60546875 C31.4222357 503.46704567 29.27379707 504.32772103 27.125 505.1875 C25.49304688 505.84395508 25.49304688 505.84395508 23.828125 506.51367188 C22.24644531 507.14692383 22.24644531 507.14692383 20.6328125 507.79296875 C19.22346436 508.35794067 19.22346436 508.35794067 17.78564453 508.93432617 C16.86638184 509.28599854 15.94711914 509.6376709 15 510 C14.07944824 510.37552002 13.15889648 510.75104004 12.21044922 511.13793945 C9.30863387 511.91712653 7.26005508 512.09098194 4.29934692 512.05387878 C3.49300371 512.04610003 2.6866605 512.03832129 1.85588264 512.03030682 C1.24344137 512.02030557 0.6310001 512.01030432 0 512 C-0.02332889 495.45852931 -0.04097912 478.91706394 -0.05181217 462.37558079 C-0.05697515 454.69561273 -0.06401789 447.01565487 -0.07543945 439.33569336 C-0.08538623 432.64422011 -0.09185341 425.95275424 -0.09408849 419.2612738 C-0.09539561 415.71604399 -0.09848153 412.17083532 -0.10573006 408.62561226 C-0.1137438 404.67431355 -0.11399114 400.7230358 -0.11352539 396.77172852 C-0.11712067 395.58778 -0.12071594 394.40383148 -0.12442017 393.18400574 C-0.1230455 392.11403351 -0.12167084 391.04406128 -0.12025452 389.94166565 C-0.12117631 389.00604577 -0.1220981 388.07042589 -0.12304783 387.1064539 C0 385 0 385 1 384 C2.87985358 383.68949269 4.76895424 383.43468325 6.66015625 383.203125 C47.17729254 378.00450139 78.53208975 362.06670954 103.84765625 329.6328125 C123.27068163 303.35199911 130.39668737 268.90911737 125.8125 236.875 C120.74957686 204.83441236 103.68699828 174.31008839 77.39892578 154.8125 C63.28952293 144.66926178 48.72374543 137.6545052 32 133 C30.94683594 132.65839844 29.89367187 132.31679687 28.80859375 131.96484375 C23.46810742 130.61192055 18.0929427 130.05337674 12.625 129.4375 C10.45007782 129.19006136 8.27556745 128.93896579 6.1015625 128.68359375 C5.14588379 128.57587646 4.19020508 128.46815918 3.20556641 128.35717773 C1 128 1 128 0 127 C-0.09608663 125.35509451 -0.12187787 123.70604309 -0.12025452 122.05833435 C-0.12162918 120.98836212 -0.12300385 119.91838989 -0.12442017 118.81599426 C-0.12082489 117.63204575 -0.11722961 116.44809723 -0.11352539 115.22827148 C-0.11367142 113.989422 -0.11381744 112.75057251 -0.1139679 111.47418213 C-0.11338892 108.06730167 -0.10835959 104.66048116 -0.10139394 101.25361133 C-0.09515993 97.69683174 -0.09455656 94.14005142 -0.09336853 90.58326721 C-0.09025535 83.84363418 -0.08204215 77.10401729 -0.07201904 70.36439139 C-0.06085748 62.69341602 -0.05534735 55.02243989 -0.05032361 47.35145843 C-0.03985952 31.56762959 -0.02226035 15.78381687 0 0 Z " fill="#00A861" transform="translate(257,0)"/>
<path d="M0 0 C2.10624553 -0.00218214 4.21196212 -0.02038542 6.31811523 -0.03930664 C39.68755673 -0.18172672 68.84672366 14.67403082 92.74584961 37.24780273 C116.84605535 61.95484818 129.76365462 94.79720994 129.61083984 129.18798828 C128.93239811 158.73964814 118.52323289 186.73492365 99.30834961 209.18530273 C98.88457031 209.68288086 98.46079102 210.18045898 98.02416992 210.69311523 C77.46312744 234.59514315 49.75848772 250.24734877 18.30834961 254.18530273 C13.81365716 254.37048083 9.32042169 254.37112093 4.82250977 254.37060547 C2.70950674 254.37277587 0.59704077 254.39092797 -1.51586914 254.40991211 C-34.90643023 254.55056111 -64.87541292 240.80921514 -88.87133789 218.00952148 C-93.19469915 213.68017219 -97.0087128 209.06501695 -100.69165039 204.18530273 C-101.3065332 203.37448242 -101.92141602 202.56366211 -102.55493164 201.72827148 C-114.69165039 185.07055772 -114.69165039 185.07055772 -114.69165039 178.18530273 C-115.35165039 178.18530273 -116.01165039 178.18530273 -116.69165039 178.18530273 C-118.22175569 173.9336167 -119.65952075 169.66275384 -121.01147461 165.35180664 C-121.63089573 163.3788192 -122.2714686 161.41250392 -122.91430664 159.44702148 C-131.7022953 129.32877785 -126.2237811 93.4733198 -111.69165039 66.18530273 C-109.79164473 63.11162739 -107.76866172 60.1413992 -105.69165039 57.18530273 C-105.07161133 56.26362305 -104.45157227 55.34194336 -103.81274414 54.39233398 C-95.69780977 42.85067559 -86.10403322 32.50762178 -74.69165039 24.18530273 C-73.99813477 23.6297168 -73.30461914 23.07413086 -72.59008789 22.50170898 C-51.76508681 6.57021522 -25.74045745 -0.00297612 0 0 Z " fill="#E1EBF0" transform="translate(255.691650390625,128.814697265625)"/>
<path d="M0 0 C1.60900767 1.60900767 1.12938076 3.33277057 1.13371277 5.55961609 C1.14011024 7.03797691 1.14011024 7.03797691 1.14663696 8.54620361 C1.14595718 10.18175201 1.14595718 10.18175201 1.14526367 11.8503418 C1.14862228 12.99177139 1.1519809 14.13320099 1.15544128 15.30921936 C1.16498763 19.10589672 1.16689647 22.90253012 1.16796875 26.69921875 C1.1711796 29.32900511 1.17454354 31.95879129 1.17805481 34.58857727 C1.18445924 40.112684 1.18593647 45.63677874 1.18530273 51.16088867 C1.18470296 57.54045173 1.19523252 63.91992995 1.2110464 70.29947156 C1.22571739 76.4370551 1.2292902 82.57459809 1.22869301 88.71219826 C1.2298741 91.32249103 1.23430306 93.93278441 1.24202538 96.54306602 C1.25181802 100.19634401 1.24894952 103.84940408 1.24291992 107.50268555 C1.24853943 108.58292999 1.25415894 109.66317444 1.25994873 110.77615356 C1.21836678 120.68638585 -1.04221837 125.99674267 -8 133 C-9.66666667 134.33333333 -11.33333333 135.66666667 -13 137 C-15.40765605 139.60450844 -17.71533339 142.28736991 -20 145 C-23.50455948 144.42319091 -25.07958831 143.25401811 -27.49609375 140.69140625 C-28.13740234 140.02689453 -28.77871094 139.36238281 -29.43945312 138.67773438 C-30.7676925 137.2715924 -32.09581816 135.86534301 -33.42382812 134.45898438 C-37.98891849 129.64288702 -37.98891849 129.64288702 -44 127 C-44 126.34 -44 125.68 -44 125 C-50.48511856 125.16176033 -55.35650226 126.22787352 -60 131 C-62.59372279 135.22455852 -62.64211046 139.17228063 -62 144 C-60.22445187 149.46101018 -57.67004468 152.62718995 -53 156 C-53 156.66 -53 157.32 -53 158 C-52.13375 158.37125 -52.13375 158.37125 -51.25 158.75 C-48.69728947 160.16817251 -47.02214391 161.91045129 -45 164 C-44.34 164.33 -43.68 164.66 -43 165 C-42.525625 165.804375 -42.05125 166.60875 -41.5625 167.4375 C-40.10335955 170.2355972 -40.10335955 170.2355972 -37 172 C-37 172.66 -37 173.32 -37 174 C-36.443125 174.2475 -35.88625 174.495 -35.3125 174.75 C-32.6006765 176.21585054 -30.3847366 178.05455699 -28 180 C-24.92009655 181.53995173 -22.41257239 181.22377524 -19 181 C-14.87973355 179.55790674 -11.92633602 178.23437139 -9 175 C-8.34 175 -7.68 175 -7 175 C-6.773125 174.4225 -6.54625 173.845 -6.3125 173.25 C-4.66132744 170.41941846 -2.64378067 168.89809894 0 167 C0.33 167 0.66 167 1 167 C1 194.72 1 222.44 1 251 C-31.19064523 251 -56.63568194 245.54063881 -81 224 C-81.90234375 223.22914063 -82.8046875 222.45828125 -83.734375 221.6640625 C-90.23846729 215.96848997 -95.78130102 209.88550778 -101 203 C-101.92425781 201.78183594 -101.92425781 201.78183594 -102.8671875 200.5390625 C-115 183.87666667 -115 183.87666667 -115 177 C-115.66 177 -116.32 177 -117 177 C-118.5301053 172.74831397 -119.96787036 168.47745111 -121.31982422 164.16650391 C-121.93924534 162.19351647 -122.57981821 160.22720118 -123.22265625 158.26171875 C-132.01064491 128.14347511 -126.5321307 92.28801706 -112 65 C-110.09999434 61.92632466 -108.07701132 58.95609646 -106 56 C-105.37996094 55.07832031 -104.75992188 54.15664062 -104.12109375 53.20703125 C-96.00615938 41.66537285 -86.41238283 31.32231904 -75 23 C-74.30648437 22.44441406 -73.61296875 21.88882813 -72.8984375 21.31640625 C-52.55772817 5.75540423 -25.48769921 -2.81259458 0 0 Z " fill="#FDFEFE" transform="translate(256,130)"/>
<path d="M0 0 C3.65172433 3.01435972 5.62457926 5.0497196 6.140625 9.96484375 C6.36065597 17.50379971 4.68355111 20.72570077 -0.51953125 26.28125 C-2.99094812 28.83123793 -5.43352169 31.3467897 -8.09765625 33.6953125 C-8.75765625 33.6953125 -9.41765625 33.6953125 -10.09765625 33.6953125 C-10.34515625 34.2521875 -10.59265625 34.8090625 -10.84765625 35.3828125 C-13.65038967 40.56786933 -17.59405105 44.08999951 -22.01171875 47.8671875 C-25.19630422 50.65817252 -28.1352149 53.67295661 -31.09765625 56.6953125 C-33.66065273 59.26678169 -36.23251211 61.82842454 -38.81640625 64.37890625 C-44.65104292 70.07842133 -44.65104292 70.07842133 -50.03515625 76.1953125 C-51.92177648 78.4821249 -53.586031 80.13637269 -56.09765625 81.6953125 C-56.75765625 81.6953125 -57.41765625 81.6953125 -58.09765625 81.6953125 C-58.46890625 82.530625 -58.46890625 82.530625 -58.84765625 83.3828125 C-62.05808758 89.32211046 -67.53278757 95.23490432 -74.13671875 97.34765625 C-78.79577266 98.17366382 -82.03008925 98.29315002 -86.22265625 95.9453125 C-87.17140625 95.2028125 -88.12015625 94.4603125 -89.09765625 93.6953125 C-89.94328125 93.0559375 -90.78890625 92.4165625 -91.66015625 91.7578125 C-98.8796726 85.64899097 -98.8796726 85.64899097 -99.59765625 82.5078125 C-99.76265625 81.9096875 -99.92765625 81.3115625 -100.09765625 80.6953125 C-100.81953125 80.4271875 -101.54140625 80.1590625 -102.28515625 79.8828125 C-105.81475321 78.39253823 -107.2651408 76.35988948 -109.62109375 73.41796875 C-111.14728848 71.5070171 -111.14728848 71.5070171 -113.72265625 69.7578125 C-117.5955115 66.39454347 -119.63601065 62.45119682 -120.484375 57.38671875 C-120.74635863 52.02960525 -119.73777319 48.8143922 -116.09765625 44.6953125 C-111.69020313 40.80035393 -108.50754299 40.29353555 -102.85546875 40.5546875 C-102.27539062 40.60109375 -101.6953125 40.6475 -101.09765625 40.6953125 C-101.09765625 41.3553125 -101.09765625 42.0153125 -101.09765625 42.6953125 C-100.35273926 42.78611084 -99.60782227 42.87690918 -98.84033203 42.97045898 C-95.61922102 43.82175671 -94.47670421 44.88620694 -92.21484375 47.29296875 C-91.17650391 48.37094727 -91.17650391 48.37094727 -90.1171875 49.47070312 C-89.40949219 50.22544922 -88.70179688 50.98019531 -87.97265625 51.7578125 C-86.56038443 53.25532956 -85.14141535 54.74656764 -83.71484375 56.23046875 C-82.78067627 57.22639038 -82.78067627 57.22639038 -81.82763672 58.24243164 C-80.09129348 60.01686926 -80.09129348 60.01686926 -77.09765625 59.6953125 C-75.26187057 57.92733255 -75.26187057 57.92733255 -73.53515625 55.6953125 C-72.43084491 54.32739135 -71.29237113 52.98502881 -70.09765625 51.6953125 C-69.43765625 51.6953125 -68.77765625 51.6953125 -68.09765625 51.6953125 C-67.76765625 50.7053125 -67.43765625 49.7153125 -67.09765625 48.6953125 C-65.71484375 47.37109375 -65.71484375 47.37109375 -63.97265625 46.0078125 C-60.48206264 43.13489595 -57.58787476 39.97694985 -54.67578125 36.52734375 C-53.20716106 34.82243566 -51.78133104 33.18934261 -50.09765625 31.6953125 C-49.43765625 31.6953125 -48.77765625 31.6953125 -48.09765625 31.6953125 C-47.82953125 31.0559375 -47.56140625 30.4165625 -47.28515625 29.7578125 C-46.09765625 27.6953125 -46.09765625 27.6953125 -43.09765625 26.6953125 C-42.60265625 25.2103125 -42.60265625 25.2103125 -42.09765625 23.6953125 C-41.43765625 23.6953125 -40.77765625 23.6953125 -40.09765625 23.6953125 C-39.86046875 23.13328125 -39.62328125 22.57125 -39.37890625 21.9921875 C-37.80817928 19.17637208 -35.88294161 17.21575834 -33.59765625 14.9453125 C-32.80359375 14.14609375 -32.00953125 13.346875 -31.19140625 12.5234375 C-29.09765625 10.6953125 -29.09765625 10.6953125 -27.09765625 10.6953125 C-26.76765625 9.7053125 -26.43765625 8.7153125 -26.09765625 7.6953125 C-25.43765625 7.6953125 -24.77765625 7.6953125 -24.09765625 7.6953125 C-23.87078125 7.1178125 -23.64390625 6.5403125 -23.41015625 5.9453125 C-21.20727683 2.16894779 -18.24507368 0.24294355 -14.34765625 -1.6171875 C-9.23518241 -2.69867235 -4.55844656 -2.83523492 0 0 Z " fill="#B3D1D5" transform="translate(313.09765625,214.3046875)"/>
<path d="M0 0 C3.65172433 3.01435972 5.62457926 5.0497196 6.140625 9.96484375 C6.36065597 17.50379971 4.68355111 20.72570077 -0.51953125 26.28125 C-2.99094812 28.83123793 -5.43352169 31.3467897 -8.09765625 33.6953125 C-8.75765625 33.6953125 -9.41765625 33.6953125 -10.09765625 33.6953125 C-10.34515625 34.2521875 -10.59265625 34.8090625 -10.84765625 35.3828125 C-13.65038967 40.56786933 -17.59405105 44.08999951 -22.01171875 47.8671875 C-25.19630422 50.65817252 -28.1352149 53.67295661 -31.09765625 56.6953125 C-33.66065273 59.26678169 -36.23251211 61.82842454 -38.81640625 64.37890625 C-44.66954833 70.09390695 -44.66954833 70.09390695 -50.03515625 76.2578125 C-52.05169315 78.64099247 -53.330588 79.44175549 -56.09765625 80.6953125 C-56.24649449 74.84215311 -56.35510355 68.99010606 -56.42724609 63.13549805 C-56.45733295 61.14604493 -56.49821379 59.15672352 -56.55029297 57.16772461 C-56.6234675 54.30028735 -56.65719304 51.43461006 -56.68359375 48.56640625 C-56.71456146 47.68383652 -56.74552917 46.80126678 -56.7774353 45.89195251 C-56.78056034 40.09719066 -55.57097939 37.10879556 -51.58486938 32.87953186 C-50.09765625 31.6953125 -50.09765625 31.6953125 -48.09765625 31.6953125 C-47.82953125 31.0559375 -47.56140625 30.4165625 -47.28515625 29.7578125 C-46.09765625 27.6953125 -46.09765625 27.6953125 -43.09765625 26.6953125 C-42.76765625 25.7053125 -42.43765625 24.7153125 -42.09765625 23.6953125 C-41.43765625 23.6953125 -40.77765625 23.6953125 -40.09765625 23.6953125 C-39.86046875 23.13328125 -39.62328125 22.57125 -39.37890625 21.9921875 C-37.80817928 19.17637208 -35.88294161 17.21575834 -33.59765625 14.9453125 C-32.80359375 14.14609375 -32.00953125 13.346875 -31.19140625 12.5234375 C-29.09765625 10.6953125 -29.09765625 10.6953125 -27.09765625 10.6953125 C-26.76765625 9.7053125 -26.43765625 8.7153125 -26.09765625 7.6953125 C-25.43765625 7.6953125 -24.77765625 7.6953125 -24.09765625 7.6953125 C-23.87078125 7.1178125 -23.64390625 6.5403125 -23.41015625 5.9453125 C-21.20727683 2.16894779 -18.24507368 0.24294355 -14.34765625 -1.6171875 C-9.23518241 -2.69867235 -4.55844656 -2.83523492 0 0 Z " fill="#6FA3A7" transform="translate(313.09765625,214.3046875)"/>
<path d="M0 0 C0.33 0 0.66 0 1 0 C1 1.65 1 3.3 1 5 C1.639375 5.165 2.27875 5.33 2.9375 5.5 C5 7 5 7 5.5234375 8.84375 C6.275 14.45 6.275 14.45 5 17 C4.34 17 3.68 17 3 17 C3 21.95 3 26.9 3 32 C3.66 32 4.32 32 5 32 C6.125 37.75 6.125 37.75 5 40 C4.896875 40.78375 4.79375 41.5675 4.6875 42.375 C3.84981449 45.57343559 2.45822079 46.85896899 0 49 C-0.06766897 45.14286871 -0.09345439 41.60561389 0.49609375 37.78515625 C1.06842731 33.48599951 1.14679265 29.32947265 1.125 25 C1.12886719 24.23171875 1.13273437 23.4634375 1.13671875 22.671875 C1.12880278 18.01728439 0.7046152 13.61051366 0 9 C-0.06056151 7.35514934 -0.08781955 5.70827043 -0.0625 4.0625 C-0.05347656 3.29035156 -0.04445313 2.51820313 -0.03515625 1.72265625 C-0.02355469 1.15417969 -0.01195312 0.58570313 0 0 Z " fill="#1B9C6A" transform="translate(383,231)"/>
<path d="M0 0 C8.63341523 15.88210011 5.83559383 39.83453022 3 57 C2.67 57 2.34 57 2 57 C1.505 49.575 1.505 49.575 1 42 C1.66 42 2.32 42 3 42 C2.85980308 39.18711295 2.71312045 36.37483115 2.5625 33.5625 C2.52318359 32.76005859 2.48386719 31.95761719 2.44335938 31.13085938 C2.5945704 27.24760439 2.5945704 27.24760439 1 24 C0.84235595 22.22130274 0.74899323 20.43681524 0.68359375 18.65234375 C0.64169922 17.57275391 0.59980469 16.49316406 0.55664062 15.38085938 C0.51732422 14.24455078 0.47800781 13.10824219 0.4375 11.9375 C0.39431641 10.79732422 0.35113281 9.65714844 0.30664062 8.48242188 C0.20017161 5.65507805 0.09815793 2.82764262 0 0 Z " fill="#B8F5E1" transform="translate(380,223)"/>
<path d="M0 0 C2.43775269 3.65662904 2.34686544 6.49415429 2.4140625 10.73046875 C2.43342865 11.48088943 2.4527948 12.23131012 2.4727478 13.00447083 C2.53247459 15.39869867 2.57890065 17.79297477 2.625 20.1875 C2.6631862 21.8118698 2.70223831 23.43621948 2.7421875 25.06054688 C2.83817025 29.04020105 2.92222636 33.01995001 3 37 C3.66 36.01 4.32 35.02 5 34 C5.99 34 6.98 34 8 34 C8 36 8 36 6.50390625 37.5078125 C5.86324219 38.04148437 5.22257812 38.57515625 4.5625 39.125 C3.92441406 39.66382813 3.28632813 40.20265625 2.62890625 40.7578125 C1 42 1 42 0 42 C0 28.14 0 14.28 0 0 Z " fill="#83AFB1" transform="translate(257,253)"/>
<path d="M0 0 C0.33 0 0.66 0 1 0 C1.144375 1.134375 1.28875 2.26875 1.4375 3.4375 C1.61171478 6.80777201 1.61171478 6.80777201 3 8 C3.07325168 10.86267567 3.09238205 13.700719 3.0625 16.5625 C3.05798828 17.36880859 3.05347656 18.17511719 3.04882812 19.00585938 C3.03700518 21.00393756 3.01906914 23.00197783 3 25 C2.34 25 1.68 25 1 25 C1.33 25.99 1.66 26.98 2 28 C2.12320587 30.76210374 2.18513929 33.48796459 2.1875 36.25 C2.19974609 36.98863281 2.21199219 37.72726562 2.22460938 38.48828125 C2.23752662 43.3709987 1.55032324 47.36741357 0 52 C-0.33 52 -0.66 52 -1 52 C-1 49.36 -1 46.72 -1 44 C-0.34 44 0.32 44 1 44 C0.855625 43.21496094 0.71125 42.42992187 0.5625 41.62109375 C-2.01541251 27.03082502 -2.01541251 27.03082502 0 23 C0.66 23 1.32 23 2 23 C1.814375 22.175 1.62875 21.35 1.4375 20.5 C0.9225916 16.38073281 1.36507072 13.09176645 2 9 C0.68 8.34 -0.64 7.68 -2 7 C-1.34 4.69 -0.68 2.38 0 0 Z " fill="#CEF4E9" transform="translate(380,240)"/>
<path d="M0 0 C0 0.99 0 1.98 0 3 C-1.30324219 3.39832031 -1.30324219 3.39832031 -2.6328125 3.8046875 C-4.36144531 4.33449219 -4.36144531 4.33449219 -6.125 4.875 C-7.26195312 5.22304688 -8.39890625 5.57109375 -9.5703125 5.9296875 C-11.78952701 6.62224419 -13.99695617 7.3543104 -16.1875 8.1328125 C-19.21047192 9.06489551 -21.7918768 9.03493946 -24.93359375 8.93359375 C-27.11239546 9.00361195 -28.85465764 9.43723321 -30.9375 10.0625 C-35.42933735 11.33950346 -39.45246698 10.77897556 -44 10 C-44 9.67 -44 9.34 -44 9 C-43.23558594 8.90501221 -42.47117187 8.81002441 -41.68359375 8.7121582 C-27.37896871 6.89933531 -13.53964671 5.12992826 0 0 Z " fill="#1AA16D" transform="translate(302,375)"/>
<path d="M0 0 C0.33 0 0.66 0 1 0 C2.125 7.75 2.125 7.75 1 10 C0.34 10 -0.32 10 -1 10 C-1.80454422 16.32778204 -2.13634502 22.47329393 -2.09765625 28.84765625 C-2.0962413 29.74495956 -2.09482635 30.64226288 -2.09336853 31.5667572 C-2.0878251 34.39870714 -2.07528358 37.23057445 -2.0625 40.0625 C-2.05747767 41.99674364 -2.05291606 43.93098853 -2.04882812 45.86523438 C-2.03787429 50.57685417 -2.02064953 55.28841313 -2 60 C-2.33 60 -2.66 60 -3 60 C-3.89330188 55.37658959 -4.18760587 50.86795155 -4.23828125 46.171875 C-4.24780319 45.4288916 -4.25732513 44.6859082 -4.26713562 43.92041016 C-4.2915344 41.53023435 -4.30411178 39.14028342 -4.3125 36.75 C-4.31644775 35.94163696 -4.32039551 35.13327393 -4.32446289 34.30041504 C-4.35161862 22.44339759 -3.71928423 11.35710005 0 0 Z " fill="#C7FCEB" transform="translate(134,220)"/>
<path d="M0 0 C12.54 0.66 25.08 1.32 38 2 C38 2.33 38 2.66 38 3 C37.37351562 3.04898437 36.74703125 3.09796875 36.1015625 3.1484375 C35.28429687 3.22320312 34.46703125 3.29796875 33.625 3.375 C32.81289063 3.44460938 32.00078125 3.51421875 31.1640625 3.5859375 C28.79665809 3.82892588 28.79665809 3.82892588 27 6 C24.5390625 6.046875 24.5390625 6.046875 21.625 5.75 C20.66851562 5.66234375 19.71203125 5.5746875 18.7265625 5.484375 C16 5 16 5 14.00390625 3.984375 C10.64204982 2.33293675 7.05422896 2.5392969 3.36328125 2.34375 C2.58339844 2.2303125 1.80351562 2.116875 1 2 C0.67 1.34 0.34 0.68 0 0 Z " fill="#34D293" transform="translate(229,381)"/>
<path d="M0 0 C0.33 0 0.66 0 1 0 C0.67 11.22 0.34 22.44 0 34 C-0.495 32.515 -0.495 32.515 -1 31 C-1.66 31 -2.32 31 -3 31 C-3.38339966 20.19380948 -2.5423351 10.53253112 0 0 Z " fill="#29D791" transform="translate(130,233)"/>
<path d="M0 0 C0.33 0.33 0.66 0.66 1 1 C2.51469448 1.23192865 4.03754562 1.41215238 5.5625 1.5625 C6.38878906 1.64628906 7.21507812 1.73007813 8.06640625 1.81640625 C8.70449219 1.87699219 9.34257812 1.93757813 10 2 C10 2.33 10 2.66 10 3 C-5.84 3.495 -5.84 3.495 -22 4 C-14.57584982 0.28792491 -8.26921921 -0.61518413 0 0 Z " fill="#36D494" transform="translate(257,126)"/>
<path d="M0 0 C11.52164009 0.96355353 11.52164009 0.96355353 17 2 C17 2.33 17 2.66 17 3 C14.66836622 3.67258667 12.3347961 4.33847444 10 5 C9.278125 5.2475 8.55625 5.495 7.8125 5.75 C5.35941838 6.08835609 4.07406596 5.25925433 2 4 C2 3.01 2 2.02 2 1 C1.34 0.67 0.68 0.34 0 0 Z " fill="#15A069" transform="translate(382,64)"/>
<path d="M0 0 C0.33 0 0.66 0 1 0 C1.23135477 11.22070643 0.83150372 21.91286142 -1 33 C-1.33 33 -1.66 33 -2 33 C-2.33 28.05 -2.66 23.1 -3 18 C-2.34 18 -1.68 18 -1 18 C-0.505 9.09 -0.505 9.09 0 0 Z " fill="#9EEDD1" transform="translate(384,247)"/>
<path d="M0 0 C0.33 0 0.66 0 1 0 C2.125 7.75 2.125 7.75 1 10 C0.34 10 -0.32 10 -1 10 C-1.04898438 10.61488281 -1.09796875 11.22976562 -1.1484375 11.86328125 C-1.22320312 12.67152344 -1.29796875 13.47976562 -1.375 14.3125 C-1.44460937 15.11300781 -1.51421875 15.91351563 -1.5859375 16.73828125 C-2 19 -2 19 -4 22 C-3.51298949 14.40935336 -2.00236413 7.32940833 0 0 Z " fill="#BDFAE5" transform="translate(134,220)"/>
<path d="M0 0 C0 0.33 0 0.66 0 1 C-1.093125 1.12375 -2.18625 1.2475 -3.3125 1.375 C-7.36497858 2.06186078 -9.12340621 3.12340621 -12 6 C-12.99 6.33 -13.98 6.66 -15 7 C-15.33 7.99 -15.66 8.98 -16 10 C-16.66 10 -17.32 10 -18 10 C-16.8614972 5.57248913 -14.75927968 3.41739345 -11.0859375 0.9375 C-7.46378328 -0.69043448 -3.88168567 -0.39609037 0 0 Z " fill="#C6D9DC" transform="translate(212,255)"/>
<path d="M0 0 C5.14558605 -0.30268153 7.74320715 0.1621381 12 3 C13.98451771 3.71143088 15.98202112 4.38991336 18 5 C13.9154674 6.72251754 10.63026304 5.07280563 6.75 3.5625 C6.1003125 3.31951172 5.450625 3.07652344 4.78125 2.82617188 C3.18383183 2.22714006 1.59139406 1.61485679 0 1 C0 0.67 0 0.34 0 0 Z " fill="#BCFBE6" transform="translate(207,373)"/>
<path d="M0 0 C1.66666667 1.66666667 3.33333333 3.33333333 5 5 C5.928125 5.886875 6.85625 6.77375 7.8125 7.6875 C10 10 10 10 10 12 C8.68 12 7.36 12 6 12 C5.7525 11.4225 5.505 10.845 5.25 10.25 C4.07618973 7.86885658 4.07618973 7.86885658 1.875 6 C0 4 0 4 0 0 Z " fill="#23D58D" transform="translate(154,332)"/>
<path d="M0 0 C1.65 0 3.3 0 5 0 C2.10357159 2.35082212 -0.65356331 3.83519406 -4.125 5.1875 C-5.42824219 5.70376953 -5.42824219 5.70376953 -6.7578125 6.23046875 C-9 7 -9 7 -11 7 C-10 4 -10 4 -7.75 2.8125 C-5.00208853 2.00061706 -2.84552111 1.83739879 0 2 C0 1.34 0 0.68 0 0 Z " fill="#BCF5E2" transform="translate(306,371)"/>
<path d="M0 0 C1 2 1 2 0.0625 5.125 C-0.288125 6.07375 -0.63875 7.0225 -1 8 C-3.375 8.625 -3.375 8.625 -6 9 C-6.66 8.34 -7.32 7.68 -8 7 C-5.36 4.69 -2.72 2.38 0 0 Z " fill="#12A26B" transform="translate(345,348)"/>
<path d="M0 0 C4.25983217 3.49914785 6.15672955 7.92120163 8 13 C8 13.66 8 14.32 8 15 C7.34 15 6.68 15 6 15 C5.17988688 13.44148245 4.36923787 11.87798284 3.5625 10.3125 C3.11003906 9.44238281 2.65757812 8.57226562 2.19140625 7.67578125 C1.04008072 5.09001736 0.43679247 2.78643472 0 0 Z " fill="#C2F4E4" transform="translate(367,193)"/>
<path d="M0 0 C0.33 0 0.66 0 1 0 C1 1.65 1 3.3 1 5 C1.639375 5.165 2.27875 5.33 2.9375 5.5 C5 7 5 7 5.48828125 8.9140625 C5.7275978 10.93575155 5.86893028 12.96841939 6 15 C5.896875 14.360625 5.79375 13.72125 5.6875 13.0625 C5.460625 12.381875 5.23375 11.70125 5 11 C4.01 10.67 3.02 10.34 2 10 C-0.4294516 6.3558226 -0.16179575 4.28758728 0 0 Z " fill="#139D68" transform="translate(383,231)"/>
<path d="M0 0 C1.43861294 0.08746284 2.87597508 0.19565348 4.3125 0.3125 C5.11300781 0.37050781 5.91351563 0.42851562 6.73828125 0.48828125 C9.36272334 1.08206694 10.30820672 1.95780294 12 4 C10.1875 4.625 10.1875 4.625 8 5 C7.01 4.34 6.02 3.68 5 3 C3.34450469 2.61500109 1.6777567 2.27206865 0 2 C0 1.34 0 0.68 0 0 Z " fill="#81A7AB" transform="translate(302,212)"/>
<path d="M0 0 C0.66 0.33 1.32 0.66 2 1 C-1.80582524 6.30097087 -1.80582524 6.30097087 -6 7 C-6.66 7.66 -7.32 8.32 -8 9 C-8.99 8.67 -9.98 8.34 -11 8 C-9.72992786 7.0406581 -8.45891081 6.08256706 -7.1875 5.125 C-6.47980469 4.59132812 -5.77210938 4.05765625 -5.04296875 3.5078125 C-3.39543703 2.29185219 -1.70375789 1.13583859 0 0 Z " fill="#CAFBEB" transform="translate(191,146)"/>
<path d="M0 0 C0.66 0.33 1.32 0.66 2 1 C0.42466914 1.86883706 -1.16064509 2.71959068 -2.75 3.5625 C-3.63171875 4.03816406 -4.5134375 4.51382813 -5.421875 5.00390625 C-8.20701188 6.07998186 -9.26980214 6.06528748 -12 5 C-10.04578965 4.13644222 -8.08648653 3.28440066 -6.125 2.4375 C-5.03445312 1.96183594 -3.94390625 1.48617187 -2.8203125 0.99609375 C-1.88960937 0.66738281 -0.95890625 0.33867187 0 0 Z " fill="#BCFBE6" transform="translate(215,135)"/>
<path d="M0 0 C0.66 0 1.32 0 2 0 C0.33248852 3.94139078 -2.22710649 6.7892812 -5 10 C-5 6.40142046 -4.04169485 4.90548882 -2 2 C-1.34 2 -0.68 2 0 2 C0 1.34 0 0.68 0 0 Z " fill="#C3F4E5" transform="translate(359,329)"/>
<path d="M0 0 C0.66 0 1.32 0 2 0 C0.68775452 3.93673644 -0.91910327 6.22719294 -4 9 C-4.33 7.68 -4.66 6.36 -5 5 C-4.01 5 -3.02 5 -2 5 C-1.34 3.35 -0.68 1.7 0 0 Z " fill="#BFEFE1" transform="translate(365,320)"/>
<path d="M0 0 C0.33 0.99 0.66 1.98 1 3 C-1.3125 6.1875 -1.3125 6.1875 -4 9 C-4.66 9 -5.32 9 -6 9 C-5.52797514 4.75177626 -3.03344482 2.80010291 0 0 Z " fill="#BFD5D8" transform="translate(243,266)"/>
<path d="M0 0 C1.98 0 3.96 0 6 0 C2.8745041 2.64465038 -0.08788267 3.84414715 -4 5 C-3.67 4.01 -3.34 3.02 -3 2 C-2.01 2 -1.02 2 0 2 C0 1.34 0 0.68 0 0 Z " fill="#24D28B" transform="translate(195,141)"/>
<path d="M0 0 C0 3 0 3 0 3 Z M-3 3 C-2.34 3.33 -1.68 3.66 -1 4 C-2.485 6.475 -2.485 6.475 -4 9 C-5.32 8.67 -6.64 8.34 -8 8 C-6.35 6.35 -4.7 4.7 -3 3 Z " fill="#8EB1B5" transform="translate(287,222)"/>
<path d="M0 0 C3.91211733 1.15585285 6.8745041 2.35534962 10 5 C8.02 5 6.04 5 4 5 C4 4.34 4 3.68 4 3 C2.68 2.34 1.36 1.68 0 1 C0 0.67 0 0.34 0 0 Z " fill="#2AD38F" transform="translate(195,368)"/>
<path d="M0 0 C3.73487777 0.4979837 5.81237635 0.87491756 9 3 C9 3.66 9 4.32 9 5 C5.22454612 3.90931332 2.52956528 3.0916909 0 0 Z " fill="#CCFDEC" transform="translate(190,364)"/>
<path d="M0 0 C1.31611677 0.95336021 2.62778961 1.91285774 3.9375 2.875 C4.66839844 3.40867187 5.39929688 3.94234375 6.15234375 4.4921875 C8 6 8 6 9 8 C7.02 7.34 5.04 6.68 3 6 C3 5.34 3 4.68 3 4 C2.01 3.67 1.02 3.34 0 3 C0 2.01 0 1.02 0 0 Z " fill="#2BD08D" transform="translate(172,351)"/>
<path d="M0 0 C2.0625 1.6875 2.0625 1.6875 4 4 C3.75 6.75 3.75 6.75 3 9 C2.34 9 1.68 9 1 9 C0.67 6.03 0.34 3.06 0 0 Z " fill="#2C9B71" transform="translate(383,238)"/>
<path d="M0 0 C0.66 0 1.32 0 2 0 C1.50168276 3.68754757 0.89932357 5.60490662 -2 8 C-1.125 1.125 -1.125 1.125 0 0 Z " fill="#17D78A" transform="translate(145,189)"/>
<path d="M0 0 C3.8063457 0.67170806 7.35206816 1.72746564 11 3 C10.34 3.66 9.68 4.32 9 5 C8.01 5 7.02 5 6 5 C6 4.34 6 3.68 6 3 C4.02 2.34 2.04 1.68 0 1 C0 0.67 0 0.34 0 0 Z " fill="#12A86B" transform="translate(349,54)"/>
<path d="M0 0 C0.66 0.33 1.32 0.66 2 1 C0.68 2.65 -0.64 4.3 -2 6 C-3.32 5.67 -4.64 5.34 -6 5 C-4.02 3.35 -2.04 1.7 0 0 Z " fill="#1AA670" transform="translate(334,357)"/>
<path d="M0 0 C2.97 0.495 2.97 0.495 6 1 C6 2.65 6 4.3 6 6 C3.97945196 4.35830472 1.97956942 2.69088222 0 1 C0 0.67 0 0.34 0 0 Z " fill="#CEFEEC" transform="translate(164,343)"/>
<path d="M0 0 C0.66 0.99 1.32 1.98 2 3 C1 5 1 5 -2.0625 6.125 C-3.031875 6.41375 -4.00125 6.7025 -5 7 C-1.125 1.125 -1.125 1.125 0 0 Z " fill="#2BAD7B" transform="translate(354,338)"/>
<path d="M0 0 C2.56616632 3.84924948 2.55097676 6.4349304 3 11 C1.5 10 1.5 10 0 8 C-0.27345479 5.28153765 -0.13491285 2.74322801 0 0 Z " fill="#31D592" transform="translate(131,280)"/>
<path d="M0 0 C0.33 1.32 0.66 2.64 1 4 C-2 6 -2 6 -5 6 C-3.86695008 2.60085025 -2.87481525 1.94745549 0 0 Z " fill="#769EA2" transform="translate(277,234)"/>
<path d="M0 0 C3.08089673 2.77280706 4.68775452 5.06326356 6 9 C4.125 8.4375 4.125 8.4375 2 7 C0.75 3.375 0.75 3.375 0 0 Z " fill="#B7F2DE" transform="translate(361,183)"/>
<path d="M0 0 C3.73487777 0.4979837 5.81237635 0.87491756 9 3 C9 3.66 9 4.32 9 5 C5.54074837 3.7508258 2.85306797 2.32472205 0 0 Z " fill="#199C6A" transform="translate(314,141)"/>
</svg>
