<?xml version="1.0" encoding="UTF-8"?>
<svg version="1.1" xmlns="http://www.w3.org/2000/svg" width="435" height="76">
<path d="M0 0 C0 9 0 9 -1 11 C-1.103125 11.969375 -1.20625 12.93875 -1.3125 13.9375 C-2 17 -2 17 -3.71484375 18.6171875 C-6.26979928 20.16326315 -8.31627408 20.68567846 -11.25 21.1875 C-12.14203125 21.34605469 -13.0340625 21.50460938 -13.953125 21.66796875 C-14.62859375 21.77753906 -15.3040625 21.88710938 -16 22 C-15.18015625 22.03738281 -14.3603125 22.07476562 -13.515625 22.11328125 C-12.43796875 22.17902344 -11.3603125 22.24476562 -10.25 22.3125 C-9.18265625 22.37050781 -8.1153125 22.42851563 -7.015625 22.48828125 C-3.77834901 23.03761176 -2.3108016 23.70017608 0 26 C0.5625 28.875 0.5625 28.875 0 32 C-2.01862679 34.93026469 -3.61352051 36.60090123 -7.08984375 37.6015625 C-12.0913702 38.33682964 -16.30660483 38.06509387 -21 36 C-22.8125 33.375 -22.8125 33.375 -24 31 C-24.66 31 -25.32 31 -26 31 C-26 30.34 -26 29.68 -26 29 C-31.0137723 27.23043331 -33.19326864 26.90475812 -38 29 C-41.125 28.9375 -41.125 28.9375 -44 28 C-46 25.8125 -46 25.8125 -47 23 C-46.3125 19.75 -46.3125 19.75 -45 17 C-44.34 16.67 -43.68 16.34 -43 16 C-43 15.34 -43 14.68 -43 14 C-43.99 13.67 -44.98 13.34 -46 13 C-46.66 13.66 -47.32 14.32 -48 15 C-48.375 12.8125 -48.375 12.8125 -48 10 C-45.24482051 6.64910603 -43.6006857 5.29252297 -39.328125 4.51171875 C-34.83488406 4.2992006 -31.81864456 4.56659994 -27.8125 6.6875 C-24.95572209 11.9085079 -25.61632843 17.17671814 -26 23 C-25.01 23 -24.02 23 -23 23 C-23 24.32 -23 25.64 -23 27 C-22.67 26.67 -22.34 26.34 -22 26 C-22 25.030625 -22 24.06125 -22 23.0625 C-22 20 -22 20 -21 18 C-21.33 17.34 -21.66 16.68 -22 16 C-22.44959697 11.95362726 -22.65196289 9.84755176 -20.125 6.5625 C-15.72890579 4.3644529 -11.82520752 4.66270394 -7 5 C-6.814375 4.0409375 -6.814375 4.0409375 -6.625 3.0625 C-6.41875 2.381875 -6.2125 1.70125 -6 1 C-4 0 -4 0 0 0 Z M-38 10 C-38.33 10.66 -38.66 11.32 -39 12 C-38.01 11.67 -37.02 11.34 -36 11 C-36.66 10.67 -37.32 10.34 -38 10 Z M-12 9 C-12.99 9.66 -13.98 10.32 -15 11 C-14.73323796 12.98491642 -14.73323796 12.98491642 -14 15 C-13.01 15.33 -12.02 15.66 -11 16 C-10.01 15.34 -9.02 14.68 -8 14 C-8.26676204 12.01508358 -8.26676204 12.01508358 -9 10 C-9.99 9.67 -10.98 9.34 -12 9 Z M-34 12 C-36.31 12.66 -38.62 13.32 -41 14 C-41 14.33 -41 14.66 -41 15 C-38.36 14.67 -35.72 14.34 -33 14 C-33.33 13.34 -33.66 12.68 -34 12 Z M-38.75 20.5 C-39.1625 20.995 -39.575 21.49 -40 22 C-37.525 22.495 -37.525 22.495 -35 23 C-34.34 21.68 -33.68 20.36 -33 19 C-36.87797662 18.56613908 -36.87797662 18.56613908 -38.75 20.5 Z M-17 29 C-16.67 29.66 -16.34 30.32 -16 31 C-14.35 30.67 -12.7 30.34 -11 30 C-11 29.67 -11 29.34 -11 29 C-12.98 29 -14.96 29 -17 29 Z M-8 29 C-7.34 29.66 -6.68 30.32 -6 31 C-6 30.34 -6 29.68 -6 29 C-6.66 29 -7.32 29 -8 29 Z M-16 31 C-16 31.33 -16 31.66 -16 32 C-13.36 32 -10.72 32 -8 32 C-8 31.67 -8 31.34 -8 31 C-10.64 31 -13.28 31 -16 31 Z " fill="#020202" transform="translate(255,33)"/>
<path d="M0 0 C3.3 0 6.6 0 10 0 C11.98 5.61 13.96 11.22 16 17 C18.16965398 13.74551903 19.36143262 10.4746415 20.625 6.8125 C20.85445312 6.15830078 21.08390625 5.50410156 21.3203125 4.83007812 C21.88395144 3.22135865 22.44247984 1.61085023 23 0 C25.97 0 28.94 0 32 0 C32.1979005 3.87454177 32.3814709 7.7496362 32.5625 11.625 C32.64661133 13.26662109 32.64661133 13.26662109 32.73242188 14.94140625 C32.78076172 16.00488281 32.82910156 17.06835938 32.87890625 18.1640625 C32.9260376 19.13811035 32.97316895 20.1121582 33.02172852 21.11572266 C32.99868166 24.17499807 32.57784025 26.9999001 32 30 C30.02 30 28.04 30 26 30 C25.67 25.05 25.34 20.1 25 15 C23.39639698 19.56127862 23.39639698 19.56127862 21.79907227 24.12475586 C20.11111111 28.88888889 20.11111111 28.88888889 19 30 C17.02 30 15.04 30 13 30 C11.35 25.38 9.7 20.76 8 16 C6.64908472 18.70183055 6.66141942 21.11808206 6.4375 24.125 C6.35371094 25.22070312 6.26992187 26.31640625 6.18359375 27.4453125 C6.12300781 28.28835937 6.06242188 29.13140625 6 30 C4.02 30 2.04 30 0 30 C0 20.1 0 10.2 0 0 Z M6 10 C7 12 7 12 7 12 Z " fill="#030303" transform="translate(123,31)"/>
<path d="M0 0 C2.866875 -0.061875 5.73375 -0.12375 8.6875 -0.1875 C10.02880981 -0.22846802 10.02880981 -0.22846802 11.3972168 -0.27026367 C16.03395048 -0.31862256 19.34216772 -0.19609409 23 3 C24.14092581 5.62193527 24.21535331 8.16175386 24 11 C22.5625 14 22.5625 14 21 16 C21.99 16.33 22.98 16.66 24 17 C24.75 20.1875 24.75 20.1875 25 24 C23.23358828 26.80189446 21.96950178 28.51524911 19 30 C17.55151418 30.08342159 16.09929131 30.10732861 14.6484375 30.09765625 C13.88192871 30.09515869 13.11541992 30.09266113 12.32568359 30.09008789 C11.35195801 30.08098389 10.37823242 30.07187988 9.375 30.0625 C6.28125 30.041875 3.1875 30.02125 0 30 C0 20.1 0 10.2 0 0 Z M7 6 C7 7.98 7 9.96 7 12 C9.64 12 12.28 12 15 12 C15.38218767 10.34385343 15.71395102 8.67542976 16 7 C15.01732141 5.79438816 15.01732141 5.79438816 13.15234375 5.90234375 C11.1015625 5.93489583 9.05078125 5.96744792 7 6 Z M7 18 C7 19.98 7 21.96 7 24 C7.66 23.67 8.32 23.34 9 23 C9.33 23.33 9.66 23.66 10 24 C11.99958364 24.04080783 14.00045254 24.04254356 16 24 C16.33 22.35 16.66 20.7 17 19 C14.71294169 17.85647084 13.40735238 17.89665561 10.875 17.9375 C8.956875 17.9684375 8.956875 17.9684375 7 18 Z " fill="#419DC5" transform="translate(9,31)"/>
<path d="M0 0 C1.64453125 1.37890625 1.64453125 1.37890625 4.08203125 3.81640625 C3.75203125 5.13640625 3.42203125 6.45640625 3.08203125 7.81640625 C0.83203125 8.50390625 0.83203125 8.50390625 -1.91796875 8.81640625 C-3.25646546 7.82332804 -4.58948184 6.82283573 -5.91796875 5.81640625 C-8.96076247 5.14960257 -8.96076247 5.14960257 -11.91796875 5.81640625 C-14.23908699 8.13752449 -14.90743916 9.79854614 -14.94140625 13.08203125 C-14.63607393 17.96091955 -14.63607393 17.96091955 -11.91796875 21.81640625 C-7.11962314 22.36454656 -7.11962314 22.36454656 -2.98046875 20.31640625 C-2.62984375 19.82140625 -2.27921875 19.32640625 -1.91796875 18.81640625 C-3.05234375 18.83703125 -4.18671875 18.85765625 -5.35546875 18.87890625 C-8.91796875 18.81640625 -8.91796875 18.81640625 -9.91796875 17.81640625 C-10.04296875 15.31640625 -10.04296875 15.31640625 -9.91796875 12.81640625 C-8.91796875 11.81640625 -8.91796875 11.81640625 -5.9765625 11.71875 C-4.18412109 11.73615234 -4.18412109 11.73615234 -2.35546875 11.75390625 C-0.55916016 11.76744141 -0.55916016 11.76744141 1.2734375 11.78125 C2.20027344 11.79285156 3.12710938 11.80445313 4.08203125 11.81640625 C5.30532199 15.48627846 4.96224131 18.15608447 4.64453125 22.00390625 C4.54269531 23.27621094 4.44085938 24.54851563 4.3359375 25.859375 C4.25214844 26.83519531 4.16835937 27.81101562 4.08203125 28.81640625 C1.41536458 28.81640625 -1.25130208 28.81640625 -3.91796875 28.81640625 C-5.17609375 29.04328125 -6.43421875 29.27015625 -7.73046875 29.50390625 C-11.94844134 30.0456642 -14.31764517 29.18934679 -17.91796875 26.81640625 C-21.90893596 23.71232064 -23.01251032 20.7552704 -23.91796875 15.81640625 C-24.01748675 10.09965014 -22.57803703 6.31306157 -18.91796875 1.81640625 C-13.76303936 -2.85524851 -6.04838806 -3.73250832 0 0 Z " fill="#3C9EC8" transform="translate(113.91796875,32.18359375)"/>
<path d="M0 0 C2.66666667 0 5.33333333 0 8 0 C9.03640625 -0.01740234 9.03640625 -0.01740234 10.09375 -0.03515625 C11.28484375 -0.04869141 11.28484375 -0.04869141 12.5 -0.0625 C13.2940625 -0.07410156 14.088125 -0.08570313 14.90625 -0.09765625 C17 0 17 0 19 1 C19 1.66 19 2.32 19 3 C19.474375 2.505 19.94875 2.01 20.4375 1.5 C23.67013591 -0.39227468 26.10202466 -0.44254896 29.78125 -0.59375 C32 0 32 0 34.265625 1.94921875 C36.65985709 6.16069457 36.44491357 9.56335582 36.25 14.3125 C36.23195313 15.14845703 36.21390625 15.98441406 36.1953125 16.84570312 C36.14841126 18.89763228 36.07667411 20.94896756 36 23 C33.69 23 31.38 23 29 23 C28.67 17.72 28.34 12.44 28 7 C26.35 7 24.7 7 23 7 C21.5192152 9.9615696 21.64685963 12.83506295 21.4375 16.125 C21.35371094 17.40632813 21.26992188 18.68765625 21.18359375 20.0078125 C21.12300781 20.99523437 21.06242187 21.98265625 21 23 C18.69 23 16.38 23 14 23 C13.67 17.72 13.34 12.44 13 7 C11.35 7.33 9.7 7.66 8 8 C7.93941406 8.99902344 7.87882812 9.99804688 7.81640625 11.02734375 C7.73261719 12.31769531 7.64882813 13.60804687 7.5625 14.9375 C7.48128906 16.22527344 7.40007812 17.51304688 7.31640625 18.83984375 C7 22 7 22 6 23 C4.02 23 2.04 23 0 23 C0 15.41 0 7.82 0 0 Z " fill="#020202" transform="translate(281,38)"/>
<path d="M0 0 C3.86850436 3.09480348 4.99883446 5.77522805 5.9375 10.625 C6.38831611 15.7182629 6.21708954 20.00761769 3.5625 24.5 C0.09188021 27.78795559 -3.18239931 29.54983304 -8.01953125 29.91796875 C-13.27336229 29.67631042 -16.67213449 28.15465517 -20.43359375 24.48046875 C-23.70502509 20.37496143 -24.00109395 16.16465892 -23.625 11.125 C-23.07326364 7.39602319 -22.25423406 4.71496279 -19.8125 1.75 C-13.43984423 -2.82524004 -7.17006165 -3.18669407 0 0 Z M-14.8125 7.75 C-15.95226199 11.83478457 -16.10642744 15.66472944 -15 19.75 C-13.96896921 21.89708106 -13.96896921 21.89708106 -11.8125 22.75 C-7.61594911 23.19082992 -7.61594911 23.19082992 -4 21.375 C-1.12926681 17.44662827 -1.21757501 13.46750379 -1.8125 8.75 C-3.25264926 6.05861457 -3.25264926 6.05861457 -5.8125 4.75 C-10.09439812 4.13830027 -12.13329572 4.32827339 -14.8125 7.75 Z " fill="#3F9DC6" transform="translate(82.8125,32.25)"/>
<path d="M0 0 C0.9384375 -0.01933594 1.876875 -0.03867187 2.84375 -0.05859375 C6.35212294 0.59664649 7.47744526 1.50290539 9.5 4.4375 C9.890625 7.890625 9.890625 7.890625 9.75 11.6875 C9.71390625 12.95078125 9.6778125 14.2140625 9.640625 15.515625 C9.57101563 16.96195313 9.57101563 16.96195313 9.5 18.4375 C10.16 18.4375 10.82 18.4375 11.5 18.4375 C11.5 13.4875 11.5 8.5375 11.5 3.4375 C11.83 3.4375 12.16 3.4375 12.5 3.4375 C12.83 10.3675 13.16 17.2975 13.5 24.4375 C5.5 23.4375 5.5 23.4375 3.5 22.4375 C2.241875 22.788125 0.98375 23.13875 -0.3125 23.5 C-3.3168746 24.31937489 -4.33400774 24.48341275 -7.4375 23.625 C-9.5 22.4375 -9.5 22.4375 -10.5 21.4375 C-10.6875 18 -10.6875 18 -10.5 14.4375 C-9.84 13.7775 -9.18 13.1175 -8.5 12.4375 C-9.82 11.7775 -11.14 11.1175 -12.5 10.4375 C-12.5 8.1275 -12.5 5.8175 -12.5 3.4375 C-11.51 3.4375 -10.52 3.4375 -9.5 3.4375 C-8.8915625 2.95152344 -8.283125 2.46554688 -7.65625 1.96484375 C-4.94845327 0.04682107 -3.29077442 0.00452029 0 0 Z M-2.5 5.4375 C-2.83 6.0975 -3.16 6.7575 -3.5 7.4375 C-2.18 6.7775 -0.86 6.1175 0.5 5.4375 C-0.49 5.4375 -1.48 5.4375 -2.5 5.4375 Z M-9.5 8.4375 C-8.51 8.9325 -8.51 8.9325 -7.5 9.4375 C-7.5 10.0975 -7.5 10.7575 -7.5 11.4375 C-6.84 11.1075 -6.18 10.7775 -5.5 10.4375 C-5.83 9.7775 -6.16 9.1175 -6.5 8.4375 C-7.49 8.4375 -8.48 8.4375 -9.5 8.4375 Z M-2.5 8.4375 C-3.16 9.0975 -3.82 9.7575 -4.5 10.4375 C-1.035 9.9425 -1.035 9.9425 2.5 9.4375 C2.5 8.4475 2.5 7.4575 2.5 6.4375 C0.17642489 6.25259993 0.17642489 6.25259993 -2.5 8.4375 Z M-0.5 14.4375 C-1.49 14.7675 -2.48 15.0975 -3.5 15.4375 C-3.17 16.4275 -2.84 17.4175 -2.5 18.4375 C-0.85 18.1075 0.8 17.7775 2.5 17.4375 C1.84 17.1075 1.18 16.7775 0.5 16.4375 C0.17 15.7775 -0.16 15.1175 -0.5 14.4375 Z " fill="#020202" transform="translate(169.5,37.5625)"/>
<path d="M0 0 C3.55680172 2.10504591 4.69468936 3.08406808 6 7 C6.125 10.625 6.125 10.625 6 14 C5.67 14.33 5.34 14.66 5 15 C5.061875 15.78375 5.12375 16.5675 5.1875 17.375 C5 20 5 20 3.5 21.75 C0.07225876 23.46387062 -3.19850222 24.1245192 -7 24 C-11.26335651 22.47162691 -13.65083053 20.84777758 -16 17 C-16.85158083 11.85215555 -16.83009582 7.38349303 -14.125 2.875 C-9.88291267 -0.86801823 -5.4533639 -0.63451089 0 0 Z M-7 5 C-5.35 6.32 -3.7 7.64 -2 9 C-2 8.01 -2 7.02 -2 6 C-3.65 5.67 -5.3 5.34 -7 5 Z M-8 6 C-8 9 -8 9 -8 9 Z M-6 7 C-5.67 7.66 -5.34 8.32 -5 9 C-4.67 8.34 -4.34 7.68 -4 7 C-4.66 7 -5.32 7 -6 7 Z M-9 14 C-8 16 -8 16 -8 16 Z M-7 14 C-3 15 -3 15 -3 15 Z M1 14 C1.66 14.66 2.32 15.32 3 16 C3 15.34 3 14.68 3 14 C2.34 14 1.68 14 1 14 Z M-8 16 C-7.67 16.66 -7.34 17.32 -7 18 C-5.02 17.67 -3.04 17.34 -1 17 C-3.49064888 16.31292445 -5.37886292 16 -8 16 Z " fill="#020202" transform="translate(336,38)"/>
<path d="M0 0 C3.0625 1.9375 3.0625 1.9375 5 5 C5.67636879 8.0641556 5.85853821 10.84068676 6 14 C1.05 14.33 -3.9 14.66 -9 15 C-8.34 15.66 -7.68 16.32 -7 17 C-4.89179203 16.6814823 -4.89179203 16.6814823 -3 16 C-3 15.67 -3 15.34 -3 15 C-0.69 15 1.62 15 4 15 C4.75 16.75 4.75 16.75 5 19 C3.75 21.25 3.75 21.25 1 23 C-3.44864588 23.75529969 -7.90695071 24.06274984 -12.015625 21.9765625 C-14.64982489 19.86664511 -15.93019077 18.2094277 -17 15 C-17.3711875 9.98896872 -17.11788946 7.00871501 -14 3 C-9.67604321 -0.86436051 -5.57423725 -0.92903954 0 0 Z M-7 5 C-7.66 6.32 -8.32 7.64 -9 9 C-5.37114676 9.15149298 -5.37114676 9.15149298 -2 8 C-2 7.34 -2 6.68 -2 6 C-3.65 5.67 -5.3 5.34 -7 5 Z " fill="#020202" transform="translate(272,38)"/>
<path d="M0 0 C3.63571582 4.33457195 3.36286796 8.4480392 3.1875 13.8125 C3.16719727 14.99489258 3.16719727 14.99489258 3.14648438 16.20117188 C3.11133456 18.13441169 3.05753361 20.06729682 3 22 C0.69 22 -1.62 22 -4 22 C-4.33 16.39 -4.66 10.78 -5 5 C-9.63019987 5.4452998 -9.63019987 5.4452998 -11 7 C-11.23653523 9.52596259 -11.42173692 12.03107207 -11.5625 14.5625 C-11.60568359 15.27341797 -11.64886719 15.98433594 -11.69335938 16.71679688 C-11.79971777 18.47761912 -11.90038846 20.2387832 -12 22 C-14.31 22 -16.62 22 -19 22 C-19.99290126 19.02129623 -20.05524548 17.40817115 -19.87890625 14.33203125 C-19.83056641 13.43935547 -19.78222656 12.54667969 -19.73242188 11.62695312 C-19.67634766 10.69818359 -19.62027344 9.76941406 -19.5625 8.8125 C-19.51029297 7.87212891 -19.45808594 6.93175781 -19.40429688 5.96289062 C-19.27468082 3.64158499 -19.13971819 1.32071591 -19 -1 C-16 -1 -13 -1 -10 -1 C-5.95205481 -2.34931506 -3.92892826 -1.54350753 0 0 Z " fill="#020202" transform="translate(203,39)"/>
<path d="M0 0 C1.98 0 3.96 0 6 0 C6.33 0.66 6.66 1.32 7 2 C7.66 1.34 8.32 0.68 9 0 C11.0234375 -0.37109375 11.0234375 -0.37109375 13.375 -0.4375 C14.53128906 -0.49744141 14.53128906 -0.49744141 15.7109375 -0.55859375 C18 0 18 0 20.2734375 1.9453125 C22.65548678 6.15970738 22.44480934 9.56589554 22.25 14.3125 C22.23195313 15.14845703 22.21390625 15.98441406 22.1953125 16.84570312 C22.14841126 18.89763228 22.07667411 20.94896756 22 23 C19.69 23 17.38 23 15 23 C14.67 17.39 14.34 11.78 14 6 C9.36980013 6.4452998 9.36980013 6.4452998 8 8 C7.76346477 10.52596259 7.57826308 13.03107207 7.4375 15.5625 C7.39431641 16.27341797 7.35113281 16.98433594 7.30664062 17.71679688 C7.20028223 19.47761912 7.09961154 21.2387832 7 23 C4.69 23 2.38 23 0 23 C0 15.41 0 7.82 0 0 Z " fill="#020202" transform="translate(345,38)"/>
<path d="M0 0 C0 2.31 0 4.62 0 7 C2.31 7 4.62 7 7 7 C7.1875 9.875 7.1875 9.875 7 13 C4 15 4 15 0 15 C0.33 17.64 0.66 20.28 1 23 C3.94729537 24.15811388 3.94729537 24.15811388 7 24 C8.125 27.75 8.125 27.75 7 30 C4.00191332 30.93535349 1.12918184 31.17531919 -2 31 C-5.0625 29.375 -5.0625 29.375 -7 26 C-7.40123801 21.63389688 -7.28796429 17.37065803 -7 13 C-8.32 12.67 -9.64 12.34 -11 12 C-11 10.35 -11 8.7 -11 7 C-9.68 7 -8.36 7 -7 7 C-7 5.35 -7 3.7 -7 2 C-1.125 0 -1.125 0 0 0 Z " fill="#020202" transform="translate(379,31)"/>
<path d="M0 0 C2.31 0 4.62 0 7 0 C7.33 7.59 7.66 15.18 8 23 C14.93 23.495 14.93 23.495 22 24 C22.33 25.65 22.66 27.3 23 29 C22 30 22 30 19.86694336 30.11352539 C18.95050049 30.10828857 18.03405762 30.10305176 17.08984375 30.09765625 C16.199021 30.09515869 15.30819824 30.09266113 14.39038086 30.09008789 C13.25093018 30.08098389 12.11147949 30.07187988 10.9375 30.0625 C7.328125 30.041875 3.71875 30.02125 0 30 C0 20.1 0 10.2 0 0 Z " fill="#409FC9" transform="translate(37,31)"/>
<path d="M0 0 C1.65 0 3.3 0 5 0 C7.35926413 3.73227849 7.50586186 7.58289398 7.75 11.875 C7.80542969 12.56980469 7.86085938 13.26460937 7.91796875 13.98046875 C8.19598128 18.45394309 7.68898958 21.85547942 6 26 C3.625 26.1875 3.625 26.1875 1 26 C-2.11769548 21.32345677 -2.15516749 17.03532552 -2.1875 11.5 C-2.20167969 10.3965625 -2.21585937 9.293125 -2.23046875 8.15625 C-2.00127637 5.01747977 -1.33493744 2.82816786 0 0 Z " fill="#010101" transform="translate(386,2)"/>
<path d="M0 0 C0.33 1.65 0.66 3.3 1 5 C-0.86314294 6.66115171 -2.73862715 8.30308948 -4.625 9.9375 C-5.40810547 10.64036133 -5.40810547 10.64036133 -6.20703125 11.35742188 C-9.70749501 14.36090621 -12.34422464 15.89994752 -17 16 C-17.66 15.34 -18.32 14.68 -19 14 C-18.9082601 10.23356726 -18.57791654 8.55202422 -15.8203125 5.91796875 C-14.93085938 5.34691406 -14.04140625 4.77585937 -13.125 4.1875 C-12.24070312 3.60355469 -11.35640625 3.01960938 -10.4453125 2.41796875 C-6.81436696 0.31248435 -4.12901223 -0.11159493 0 0 Z " fill="#010101" transform="translate(429,25)"/>
<path d="M0 0 C0.66 0.33 1.32 0.66 2 1 C1.67 2.32 1.34 3.64 1 5 C1.72445313 4.88140625 2.44890625 4.7628125 3.1953125 4.640625 C12.07504897 3.45666014 12.07504897 3.45666014 15.6875 5.9375 C16.450625 6.618125 17.21375 7.29875 18 8 C17.67 9.32 17.34 10.64 17 12 C16.34 11.67 15.68 11.34 15 11 C15 10.01 15 9.02 15 8 C11.04 8 7.08 8 3 8 C3 10.31 3 12.62 3 15 C3.66 15 4.32 15 5 15 C5 15.66 5 16.32 5 17 C7.31 17 9.62 17 12 17 C10.85546875 18.51953125 10.85546875 18.51953125 9 20 C6.30078125 20.07421875 6.30078125 20.07421875 3.3125 19.6875 C2.31863281 19.56761719 1.32476562 19.44773437 0.30078125 19.32421875 C-0.45847656 19.21722656 -1.21773437 19.11023438 -2 19 C-2.05380578 16.20807795 -2.09357669 13.4171859 -2.125 10.625 C-2.14175781 9.8309375 -2.15851562 9.036875 -2.17578125 8.21875 C-2.19335473 6.14507985 -2.10335168 4.07116759 -2 2 C-1.34 1.34 -0.68 0.68 0 0 Z " fill="#33A2D3" transform="translate(13,40)"/>
<path d="M0 0 C2.125 0.375 2.125 0.375 4 1 C3.84333187 8.05006568 0.47304661 13.64716162 -4 19 C-6.10546875 19.8828125 -6.10546875 19.8828125 -8 20 C-8.66 19.67 -9.32 19.34 -10 19 C-10.48252332 13.73893926 -9.33177177 11.38114371 -6.125 7.25 C-5.40570313 6.30640625 -4.68640625 5.3628125 -3.9453125 4.390625 C-2 2 -2 2 0 0 Z " fill="#010101" transform="translate(409,12)"/>
<path d="M0 0 C1.79244141 0.01740234 1.79244141 0.01740234 3.62109375 0.03515625 C5.41740234 0.04869141 5.41740234 0.04869141 7.25 0.0625 C8.17683594 0.07410156 9.10367188 0.08570313 10.05859375 0.09765625 C11.28188449 3.76752846 10.93880381 6.43733447 10.62109375 10.28515625 C10.51925781 11.55746094 10.41742188 12.82976563 10.3125 14.140625 C10.22871094 15.11644531 10.14492187 16.09226562 10.05859375 17.09765625 C8.40859375 17.09765625 6.75859375 17.09765625 5.05859375 17.09765625 C4.72859375 16.10765625 4.39859375 15.11765625 4.05859375 14.09765625 C5.70859375 14.42765625 7.35859375 14.75765625 9.05859375 15.09765625 C9.05859375 10.80765625 9.05859375 6.51765625 9.05859375 2.09765625 C8.37796875 2.92265625 7.69734375 3.74765625 6.99609375 4.59765625 C4.05859375 7.09765625 4.05859375 7.09765625 0.30859375 7.47265625 C-2.94140625 7.09765625 -2.94140625 7.09765625 -3.94140625 6.09765625 C-4.06640625 3.59765625 -4.06640625 3.59765625 -3.94140625 1.09765625 C-2.94140625 0.09765625 -2.94140625 0.09765625 0 0 Z " fill="#43A4CF" transform="translate(107.94140625,43.90234375)"/>
<path d="M0 0 C14.78132118 -0.55353075 14.78132118 -0.55353075 21 3 C21 4.98 21 6.96 21 9 C20.01 8.67 19.02 8.34 18 8 C18 7.34 18 6.68 18 6 C15.72954771 5.66408104 13.45862367 5.33134935 11.1875 5 C9.92292969 4.814375 8.65835937 4.62875 7.35546875 4.4375 C4.06817492 3.93535508 4.06817492 3.93535508 1 4 C0.67 2.68 0.34 1.36 0 0 Z " fill="#35A1D1" transform="translate(10,32)"/>
<path d="M0 0 C0.66 0 1.32 0 2 0 C2 4.29 2 8.58 2 13 C-1.63 13.33 -5.26 13.66 -9 14 C-9 13.01 -9 12.02 -9 11 C-7.68 11 -6.36 11 -5 11 C-5.33 10.01 -5.66 9.02 -6 8 C-5.34 7.67 -4.68 7.34 -4 7 C-2.96708324 5.01679982 -1.9662501 3.01652194 -1 1 C-0.67 0.67 -0.34 0.34 0 0 Z " fill="#32A4D6" transform="translate(115,46)"/>
<path d="M0 0 C0 3.96 0 7.92 0 12 C-0.99 12.33 -1.98 12.66 -3 13 C-3 13.99 -3 14.98 -3 16 C-3.66 16 -4.32 16 -5 16 C-6.17869672 10.34225575 -5.89617022 6.49889364 -4 1 C-1 0 -1 0 0 0 Z " fill="#31A4D3" transform="translate(87,41)"/>
<path d="M0 0 C0 1.65 0 3.3 0 5 C3.3 5 6.6 5 10 5 C10.33 6.65 10.66 8.3 11 10 C10.505 9.505 10.01 9.01 9.5 8.5 C5.88369842 6.33021905 3.17768384 6.79111581 -1 7 C-1 6.01 -1 5.02 -1 4 C-1.99 4.33 -2.98 4.66 -4 5 C-4.33 5.99 -4.66 6.98 -5 8 C-6.32 8 -7.64 8 -9 8 C-8.01437243 4.68470727 -7.34552581 3.25050621 -4.5 1.1875 C-2 0 -2 0 0 0 Z " fill="#4399C0" transform="translate(70,31)"/>
<path d="M0 0 C0 4.62 0 9.24 0 14 C-0.99 14.495 -0.99 14.495 -2 15 C-2 14.34 -2 13.68 -2 13 C-2.66 13 -3.32 13 -4 13 C-5.47314578 5.75703325 -5.47314578 5.75703325 -3.125 2 C-1 0 -1 0 0 0 Z " fill="#30A2D6" transform="translate(97,41)"/>
<path d="M0 0 C6.15234375 -0.09765625 6.15234375 -0.09765625 8 0 C9 1 9 1 9.0625 3.5625 C9.041875 4.366875 9.02125 5.17125 9 6 C8.34 6 7.68 6 7 6 C6.34 6.66 5.68 7.32 5 8 C4.67 6.35 4.34 4.7 4 3 C2.35 2.67 0.7 2.34 -1 2 C-0.67 1.34 -0.34 0.68 0 0 Z " fill="#35A3D5" transform="translate(76,33)"/>
<path d="M0 0 C3.96 0 7.92 0 12 0 C12.33 1.32 12.66 2.64 13 4 C12.34 4 11.68 4 11 4 C10.67 5.32 10.34 6.64 10 8 C7.36 8 4.72 8 2 8 C1.67 6.68 1.34 5.36 1 4 C1.66 4.33 2.32 4.66 3 5 C3 5.66 3 6.32 3 7 C4.98 6.67 6.96 6.34 9 6 C9.33 4.68 9.66 3.36 10 2 C6.7 1.67 3.4 1.34 0 1 C0 0.67 0 0.34 0 0 Z " fill="#469DBE" transform="translate(16,48)"/>
<path d="M0 0 C0.66 0 1.32 0 2 0 C2.33 1.32 2.66 2.64 3 4 C0.03 4.66 -2.94 5.32 -6 6 C-6 5.34 -6 4.68 -6 4 C-6.99 4 -7.98 4 -9 4 C-9 3.01 -9 2.02 -9 1 C-7.700625 1.020625 -6.40125 1.04125 -5.0625 1.0625 C-3.70834367 1.08399454 -2.35243917 1.07148199 -1 1 C-0.67 0.67 -0.34 0.34 0 0 Z " fill="#31A4D7" transform="translate(78,55)"/>
<path d="M0 0 C0.99 0 1.98 0 3 0 C3 0.99 3 1.98 3 3 C2.34 3 1.68 3 1 3 C0.67 4.65 0.34 6.3 0 8 C-0.99 8.33 -1.98 8.66 -3 9 C-3.66 8.34 -4.32 7.68 -5 7 C-4.67 6.34 -4.34 5.68 -4 5 C-4.66 4.67 -5.32 4.34 -6 4 C-4.35 4 -2.7 4 -1 4 C-0.67 2.68 -0.34 1.36 0 0 Z " fill="#30A6D8" transform="translate(66,35)"/>
<path d="M0 0 C0.99 0.33 1.98 0.66 3 1 C2.67 6.28 2.34 11.56 2 17 C0.35 17 -1.3 17 -3 17 C-3.33 16.01 -3.66 15.02 -4 14 C-1.525 14.495 -1.525 14.495 1 15 C0.67 10.05 0.34 5.1 0 0 Z " fill="#4C93B1" transform="translate(116,44)"/>
<path d="M0 0 C1.98 0 3.96 0 6 0 C5.67 1.65 5.34 3.3 5 5 C2.36 5.66 -0.28 6.32 -3 7 C-2.01 4.69 -1.02 2.38 0 0 Z " fill="#31A6D7" transform="translate(99,31)"/>
<path d="M0 0 C1.32 0.66 2.64 1.32 4 2 C3.67 3.32 3.34 4.64 3 6 C1.35 6 -0.3 6 -2 6 C-2 4.68 -2 3.36 -2 2 C-1.34 2 -0.68 2 0 2 C0 1.34 0 0.68 0 0 Z " fill="#30A8D7" transform="translate(41,53)"/>
<path d="M0 0 C0 3 0 3 -1 5 C-0.01 5.33 0.98 5.66 2 6 C2.33 8.31 2.66 10.62 3 13 C2.67 12.01 2.34 11.02 2 10 C1.01 9.67 0.02 9.34 -1 9 C-0.67 8.01 -0.34 7.02 0 6 C-0.66 6 -1.32 6 -2 6 C-2 4.35 -2 2.7 -2 1 C-1.34 0.67 -0.68 0.34 0 0 Z " fill="#4697C1" transform="translate(31,42)"/>
<path d="M0 0 C0.7734375 0.07605469 1.546875 0.15210937 2.34375 0.23046875 C4.84746175 0.9062895 5.85166485 1.85246044 7.5 3.8125 C4.86 3.4825 2.22 3.1525 -0.5 2.8125 C-0.5 2.1525 -0.5 1.4925 -0.5 0.8125 C-2.81 1.1425 -5.12 1.4725 -7.5 1.8125 C-4.24139091 -0.35990606 -3.67949197 -0.42314158 0 0 Z " fill="#4198B9" transform="translate(107.5,30.1875)"/>
<path d="M0 0 C0.66 0 1.32 0 2 0 C1.67 3.3 1.34 6.6 1 10 C-0.87376865 6.2524627 -1.3214079 4.96403081 -1 1 C-0.67 0.67 -0.34 0.34 0 0 Z " fill="#4DA8C4" transform="translate(91,42)"/>
<path d="M0 0 C2.64 0 5.28 0 8 0 C8.33 0.66 8.66 1.32 9 2 C6.23735711 2.59732819 3.83967231 3 1 3 C0.67 2.01 0.34 1.02 0 0 Z " fill="#32A5D5" transform="translate(10,33)"/>
<path d="M0 0 C6.75 0.75 6.75 0.75 9 3 C6.36 3 3.72 3 1 3 C0.67 2.01 0.34 1.02 0 0 Z " fill="#4298BF" transform="translate(73,30)"/>
<path d="M0 0 C0.66 0 1.32 0 2 0 C2.33 1.65 2.66 3.3 3 5 C1.68 5.99 0.36 6.98 -1 8 C-0.67 5.36 -0.34 2.72 0 0 Z " fill="#4A9AC0" transform="translate(60,40)"/>
<path d="M0 0 C1.0625 1.8125 1.0625 1.8125 2 4 C1.67 4.99 1.34 5.98 1 7 C0.34 6.67 -0.32 6.34 -1 6 C-0.67 4.02 -0.34 2.04 0 0 Z " fill="#000000" transform="translate(231,48)"/>
<path d="M0 0 C1.32 0 2.64 0 4 0 C4 0.99 4 1.98 4 3 C2.68 3 1.36 3 0 3 C0 2.01 0 1.02 0 0 Z " fill="#000000" transform="translate(241,44)"/>
<path d="M0 0 C0.33 0 0.66 0 1 0 C1 2.31 1 4.62 1 7 C0.67 7 0.34 7 0 7 C0 4.69 0 2.38 0 0 Z " fill="#000000" transform="translate(278,52)"/>
<path d="M0 0 C0.99 1.485 0.99 1.485 2 3 C1.67 3.66 1.34 4.32 1 5 C0.67 3.35 0.34 1.7 0 0 Z " fill="#000000" transform="translate(131,51)"/>
<path d="M0 0 C0.33 0 0.66 0 1 0 C1 1.65 1 3.3 1 5 C0.67 5 0.34 5 0 5 C0 3.35 0 1.7 0 0 Z " fill="#000000" transform="translate(318,54)"/>
<path d="M0 0 C0.33 1.32 0.66 2.64 1 4 C0.34 3.67 -0.32 3.34 -1 3 C-0.67 2.01 -0.34 1.02 0 0 Z " fill="#000000" transform="translate(146,52)"/>
<path d="M0 0 C0.99 0 1.98 0 3 0 C3 0.66 3 1.32 3 2 C2.01 1.67 1.02 1.34 0 1 C0 0.67 0 0.34 0 0 Z " fill="#000000" transform="translate(209,47)"/>
<path d="M0 0 C1.32 0.33 2.64 0.66 4 1 C2.68 1.33 1.36 1.66 0 2 C0 1.34 0 0.68 0 0 Z " fill="#000000" transform="translate(304,45)"/>
<path d="M0 0 C4 1 4 1 4 1 Z " fill="#000000" transform="translate(264,53)"/>
<path d="M0 0 C1 4 1 4 1 4 Z " fill="#000000" transform="translate(353,46)"/>
<path d="M0 0 C4 1 4 1 4 1 Z " fill="#000000" transform="translate(387,0)"/>
<path d="" fill="#000000" transform="translate(0,0)"/>
<path d="" fill="#000000" transform="translate(0,0)"/>
<path d="" fill="#000000" transform="translate(0,0)"/>
<path d="" fill="#000000" transform="translate(0,0)"/>
<path d="" fill="#000000" transform="translate(0,0)"/>
<path d="" fill="#000000" transform="translate(0,0)"/>
<path d="M0 0 C2 1 2 1 2 1 Z " fill="#000000" transform="translate(382,62)"/>
<path d="" fill="#000000" transform="translate(0,0)"/>
<path d="" fill="#000000" transform="translate(0,0)"/>
<path d="" fill="#000000" transform="translate(0,0)"/>
<path d="M0 0 C2 1 2 1 2 1 Z " fill="#000000" transform="translate(168,54)"/>
<path d="" fill="#000000" transform="translate(0,0)"/>
<path d="" fill="#000000" transform="translate(0,0)"/>
<path d="" fill="#808080" transform="translate(0,0)"/>
<path d="M0 0 C2 1 2 1 2 1 Z " fill="#000000" transform="translate(354,45)"/>
<path d="" fill="#000000" transform="translate(0,0)"/>
<path d="" fill="#000000" transform="translate(0,0)"/>
<path d="" fill="#000000" transform="translate(0,0)"/>
<path d="" fill="#000000" transform="translate(0,0)"/>
<path d="" fill="#000000" transform="translate(0,0)"/>
<path d="" fill="#000000" transform="translate(0,0)"/>
<path d="" fill="#000000" transform="translate(0,0)"/>
<path d="" fill="#000000" transform="translate(0,0)"/>
<path d="" fill="#000000" transform="translate(0,0)"/>
<path d="" fill="#000000" transform="translate(0,0)"/>
<path d="" fill="#000000" transform="translate(0,0)"/>
<path d="" fill="#000000" transform="translate(0,0)"/>
<path d="" fill="#000000" transform="translate(0,0)"/>
<path d="" fill="#000000" transform="translate(0,0)"/>
<path d="" fill="#000000" transform="translate(0,0)"/>
<path d="" fill="#000000" transform="translate(0,0)"/>
<path d="" fill="#000000" transform="translate(0,0)"/>
<path d="" fill="#000000" transform="translate(0,0)"/>
<path d="" fill="#000000" transform="translate(0,0)"/>
<path d="" fill="#000000" transform="translate(0,0)"/>
</svg>
